<svg version="1.1" id="Isolationsmodus" xmlns="http://www.w3.org/2000/svg" xmlns:xlink="http://www.w3.org/1999/xlink" x="0px"
	 y="0px" viewBox="0 0 188 44" enable-background="new 0 0 188 44" xml:space="preserve">
<path fill="#FF0000" d="M57.4,18.7v-5.3c0-2.4-1.1-3.7-3.3-3.7h-5.6v21.4h2.9v-8.7h1.7l1.9,8.7h2.7l-2-8.9
	C56.9,21.8,57.4,20.6,57.4,18.7z M54.6,18.6c0,1-0.4,1.6-1.3,1.6h-1.9v-7.7h1.9c0.9,0,1.3,0.5,1.3,1.6V18.6z"/>
<path fill="#FF0000" d="M65.8,9.8h-2.7c-2.3,0-3.4,1.2-3.4,3.7v14.1c0,2.4,1.2,3.6,3.5,3.6h2.7c2.3,0,3.5-1.2,3.5-3.6V13.5
	C69.2,11,68.1,9.8,65.8,9.8z M66.4,27.4c0,0.8-0.4,1.2-1.1,1.2h-1.5c-0.9,0-1.3-0.4-1.3-1.2V13.6c0-0.8,0.4-1.2,1.3-1.2h1.3
	c0.9,0,1.3,0.4,1.3,1.2V27.4z"/>
<path fill="#FF0000" d="M76.9,9.8h-1.8c-2.3,0-3.4,1.2-3.4,3.6v14.1c0,2.4,1.1,3.6,3.4,3.6h1.8c2.3,0,3.4-1.2,3.4-3.6v-1.4h-2.9v1.2
	c0,0.8-0.4,1.2-1.1,1.2h-0.7c-0.8,0-1.1-0.4-1.1-1.2V13.6c0-0.8,0.4-1.2,1.1-1.2h0.6c0.9,0,1.3,0.4,1.3,1.2v2.2h2.9v-2.4
	C80.3,11,79.2,9.8,76.9,9.8z"/>
<rect x="82.6" y="9.8" fill="#FF0000" width="2.9" height="21.4"/>
<polygon fill="#FF0000" points="91.2,9.8 88.6,9.8 85.6,20.5 85.6,20.7 89.2,31.2 92,31.2 88.2,20.4 "/>
<polygon fill="#FF0000" points="93.7,31.2 100.7,31.2 100.7,28.6 96.5,28.6 96.5,21.5 100.3,21.5 100.3,18.9 96.5,18.9 96.5,12.4 
	100.7,12.4 100.7,9.8 93.7,9.8 "/>
<polygon fill="#FF0000" points="101.8,9.8 101.8,12.4 104.5,12.4 104.5,31.2 107.4,31.2 107.4,12.4 110.1,12.4 110.1,9.8 "/>
<rect x="111.7" y="9.8" fill="#333333" width="2.9" height="21.4"/>
<polygon fill="#333333" points="123.2,20.1 120.1,9.8 117.3,9.8 117.3,31.2 120.1,31.2 120.1,17.2 123.2,26.9 123.2,31.2 
	126.1,31.2 126.1,9.8 123.2,9.8 "/>
<polygon fill="#333333" points="127.7,12.4 130.4,12.4 130.4,31.2 133.3,31.2 133.3,12.4 136,12.4 136,9.8 127.7,9.8 "/>
<polygon fill="#333333" points="137.7,31.2 144.8,31.2 144.8,28.6 140.5,28.6 140.5,21.5 144.3,21.5 144.3,18.9 140.5,18.9 
	140.5,12.4 144.8,12.4 144.8,9.8 137.7,9.8 "/>
<path fill="#333333" d="M155.7,18.7v-5.3c0-2.4-1.1-3.7-3.3-3.7h-5.6v21.4h2.9v-8.7h1.7l1.9,8.7h2.7l-2-8.9
	C155.1,21.8,155.7,20.6,155.7,18.7 M152.8,18.6c0,1-0.4,1.6-1.3,1.6h-1.9v-7.7h1.9c0.9,0,1.3,0.5,1.3,1.6V18.6z"/>
<polygon fill="#333333" points="164,20.1 161,9.8 158.1,9.8 158.1,31.2 161,31.2 161,17.2 164,26.9 164,31.2 166.9,31.2 166.9,9.8 
	164,9.8 "/>
<polygon fill="#333333" points="169.6,31.2 176.7,31.2 176.7,28.6 172.4,28.6 172.4,21.5 176.2,21.5 176.2,18.9 172.4,18.9 
	172.4,12.4 176.7,12.4 176.7,9.8 169.6,9.8 "/>
<polygon fill="#333333" points="177.7,9.8 177.7,12.4 180.4,12.4 180.4,31.2 183.3,31.2 183.3,12.4 186,12.4 186,9.8 "/>
<g>
	<path fill="#333333" d="M36.6,15.4c1.9,5.2,0.8,11.3-3.4,15.5c-2.4,2.4-5.4,3.8-8.5,4.2c-0.8,1.1-1.5,2.1-2.2,2.9
		c4.2-0.1,8.3-1.7,11.5-4.9c5.2-5.2,6.3-12.9,3.3-19.1C37.1,14.4,36.9,14.9,36.6,15.4z"/>
	<path fill="#333333" d="M9.4,19.6c0.4-3.1,1.8-6,4.2-8.3C17.7,7.1,23.8,6,29,7.8c0.5-0.2,0.9-0.5,1.4-0.7c-6.2-2.9-13.8-1.7-19,3.4
		c-3.1,3.1-4.8,7.2-4.9,11.3C7.3,21.1,8.3,20.4,9.4,19.6z"/>
	<ellipse transform="matrix(0.7069 0.7073 -0.7073 0.7069 16.2072 -23.73)" fill="#FF0000" cx="36.7" cy="7.7" rx="0.2" ry="2.2"/>
	<path fill="#FF0000" d="M38.3,6.1C38.1,6,27.8,10.8,18.9,16.5C8,23.5,3.4,28.1,3.4,28.1c-0.3,0.3-0.2,0.6,0.2,0.6
		c0,0,8.6,0.3,10.2,1.9c1.6,1.6,1.9,10.2,1.9,10.2c0,0.4,0.3,0.5,0.6,0.2c0,0,4.6-4.6,11.5-15.5C33.6,16.6,38.5,6.3,38.3,6.1z"/>
</g>
</svg>