<svg xmlns="http://www.w3.org/2000/svg" xmlns:xlink="http://www.w3.org/1999/xlink" version="1.1" id="Layer_1" width="107.567" height="119" viewBox="0 0 107.567 119" overflow="visible" enable-background="new 0 0 107.567 119" xml:space="preserve">
<g>
	<g>
		<defs>
			<rect id="XMLID_1_" x="0" width="107.566" height="119"/>
		</defs>
		<clipPath id="XMLID_3_">
			<use xlink:href="#XMLID_1_"/>
		</clipPath>
		<path clip-path="url(#XMLID_3_)" fill="#1766A6" d="M13.854,104.624c-0.176-0.561-0.69-1.822-0.83-2.753    c-0.309-2.062,0.769-3.42,1.759-3.731c1.111-0.31,1.545,0.248,1.975,1.545c0.556,1.975,0.618,4.563,0.431,8.268    c-0.243,5.061-2.775,11.173-9.069,11.046c-5.433-0.119-7.837-3.638-8.087-9.007c-0.118-2.531,0.063-5.061,1.111-8.639    c0.556-1.916,1.052-2.598,2.777-2.965c1.356-0.248,1.234,1.17,0.927,2.842c-0.676,3.701-0.99,5.488-0.74,9.687    c0.242,4.444,2.283,6.173,4.505,6.173c3.333,0.064,4.813-2.713,5.433-6.729C14.535,107.153,14.166,105.61,13.854,104.624z     M84.918,109.007c1.298,0,1.67,1.535,1.36,2.465c-0.31,0.924-1.419,1.978-3.146,2.285    C82.76,112.829,82.574,109.007,84.918,109.007z M60.792,111.099c0-1.045-0.559-1.91-1.232-1.91c-0.562,0-1.853,0.615-1.853,2.591    c0,1.548,0.55,2.282,0.802,2.597C60.294,113.819,60.792,112.334,60.792,111.099z M41.594,98.511    c-0.087-0.99-0.863-1.664-1.913-1.664c-1.171,0-2.274,1.229-2.157,2.773c0.075,1.018,0.675,1.855,1.854,1.855    C40.731,101.476,41.718,99.933,41.594,98.511z M51.631,102.136c-0.107-1.726-0.525-2.505-1.452-2.441    c-1.229,0.074-1.797,3.941-1.546,8.006c0.16,2.652,0.555,3.061,0.923,3.035C50.236,110.695,51.867,105.957,51.631,102.136z     M92.572,108.633c-0.765,3.173-3.084,7.841-6.544,7.841c-0.801,0-2.221-0.311-2.221-1.113c0-0.865,5.435-0.984,5.435-5.122    c0-1.541-1.419-3.704-3.519-3.704c-2.777,0-5.486,3.027-5.486,7.223c0,3.762,2.337,4.997,4.682,4.997    c4.075,0,6.544-3.335,7.839-6.11c0.62,1.852,0.984,6.11,2.533,6.11c0.615,0,1.05-0.309,1.791-1.973    c1.847-4.138,3.639-8.89,6.109-8.89c0.923,0,0.37,1.67,2.591,1.67c1.047,0,1.785-0.864,1.785-1.856    c0-1.421-1.294-2.528-3.267-2.528c-5.803,0-7.033,8.703-7.96,8.703c-1.544,0-1.05-6.975-2.163-6.975    C93.189,106.905,92.704,108.082,92.572,108.633z M43.2,116.038c0.925,0,2.516-0.3,3.768-2.305    c-0.716-1.59-1.227-4.803-1.298-5.973c-0.368-5.983,1.937-11.611,4.46-11.767c1.85-0.112,3.33,1.639,3.5,4.476    c0.455,7.455-2.028,10.567-3.271,13.252c0.21,1.041,1.976,2.813,3.642,2.813c0.615,0,1.359-0.309,1.546-0.559    c-0.124-0.429-0.25-0.984-0.25-1.789c0-4.32,2.778-7.963,5.186-7.963c1.913,0,3.024,2.53,3.024,4.2    c0,1.972-1.668,3.58-4.135,5.123c0.434,0.429,1.232,0.741,1.914,0.741c3.521,0,5.363-4.26,6.727-8.15    c0.246-0.742,0.681-1.789,1.543-1.789c1.481,0,2.101,9.752,4.563,9.752c1.053,0,1.915-2.162,1.915-3.824    c0-1.236-0.432-1.36-0.432-3.15c0-1.973,1.05-3.638,2.473-3.638c0.863,0,1.175,0.86,1.175,1.907    c0,3.951-2.843,11.297-7.034,11.297c-3.153,0-2.907-5.432-4.017-5.432c-1.24,0-2.968,5.493-9.072,5.493    c-0.992,0-2.039-0.493-2.901-1.483c-1.479,0.99-2.717,1.422-4.137,1.422c-2.281,0-3.271-2.346-4.194-2.346    c-1.113,0-2.344,2.407-6.051,2.407c-2.962,0-3.456-3.946-4.503-3.946c-0.928,0-2.347,3.946-3.889,3.946    c-2.596,0-3.146-6.849-5.434-6.849c-1.789,0-7.444,6.956-8.979,6.797c-0.617-0.064-0.877-0.525-0.812-1.143    c0.087-0.854,0.822-3.14,1.12-4.221c0.499-1.877,0.957-3.934,1.213-4.59c0.254-0.662,0.939-1.134,1.489-1.083    c0.277,0.026,0.36,0.543,0.446,0.97c0.312,1.526,0.747,3.082,1.238,3.082c0.867,0,3.73-5.494,5.396-5.494    c2.04,0,2.284,8.643,5.06,8.643c0.928,0,1.609-1.109,2.224-2.471c0.063-2.287,0.68-5.551,2.531-5.551    c1.297,0,1.915,2.898,0.986,5.432C39.928,115.297,41.901,116.038,43.2,116.038"/>
	</g>
	<path fill="#1766A6" d="M86.188,19.254c-0.458,0-1.114,0-1.475-0.719c-0.296-0.59-0.196-1.541-0.753-1.966   c0.557,0.163,1.146,0.163,1.604,0.163c1.476,0,2.886-1.015,3.968-1.015c0.713,0,0.943,0.459,0.943,0.916   C90.476,18.076,87.566,19.254,86.188,19.254z M86.908,22.955c3.403,0,6.519-2.718,6.519-5.108c0-1.115-0.526-2.031-1.869-2.195   c0.229,0.295,0.327,0.524,0.327,1.048c0,1.802-2.745,3.8-5.729,3.8c-1.082,0-1.41,0.752-1.41,1.145   C84.746,22.563,85.632,22.955,86.908,22.955z M86.647,24.331c0.427,3.11,5.14,7.303,6.417,7.204   c0.854-0.072,1.181-4.061,1.181-7.204c0-1.801,0.099-3.21-0.852-3.538C91.884,23.84,87.926,24.462,86.647,24.331"/>
	<path fill="#1766A6" d="M12.933,44.93c1.112,0,0.883-6.813,2.684-6.813c0.427,0,0.558,0.426,0.558,0.95   c0,1.539-0.754,3.8-0.754,5.043c0,0.623,0.164,0.82,0.459,0.82c0.787,0,2.162-7.501,3.504-7.501c0.426,0,0.622,0.426,0.622,0.852   c0,1.572-1.996,6.091-1.996,7.368c0,0.197,0.064,0.36,0.229,0.36c0.819,0,2.456-3.536,2.979-5.304   c0.295-0.918,0.688-1.41,1.049-1.41c0.327,0,0.623,0.361,0.623,1.115c0,1.768-1.639,5.927-3.08,8.712   c-1.112,2.161-2.848,5.27-2.848,7.006c0,0.885,0.161,1.801,1.439,2.915c-2.096-0.131-2.947-0.327-3.732-1.964   c-3.505,6.975,6.451,6.288,3.045,12.475c-0.623-1.111-5.534-2.258-5.534-8.742c0-5.6,4.911-8.875,4.911-11.199   c0-0.458-0.162-0.851-0.588-1.211c-1.082-0.919-1.115-1.67-1.966-1.67c-0.621,0-1.377,1.44-0.59,2.717   c0.263,0.426,0.492,0.688,0.492,1.081c0,0.916-1.442,3.371-2.456,3.371c-1.016,0-1.8-2.518-1.8-6.581   c0-3.604,0.817-7.237,1.833-7.237c0.294,0,0.392,0.196,0.392,0.459c0,0.426-0.13,1.276-0.13,2.717   C12.278,44.798,12.638,44.93,12.933,44.93"/>
	<path fill="#1766A6" d="M21.282,54.524c1.377,0,2.522-1.017,2.522-3.273v-3.342c0-1.277,0.099-2.717,0.951-3.734   c-0.099,0.427-0.099,0.885-0.099,1.311c0,2.817,1.571,4.75,1.571,7.467c0,1.014-0.295,1.572-1.079,1.572   c-0.754,0-0.688-0.688-0.853-0.688c-0.13,0-0.327,0.425-0.327,0.884c0,0.688,0.491,1.768,1.866,1.768   c1.18,0,2.128-1.08,2.128-2.292c0-2.945-2.292-6.222-2.292-9.365c0-1.376,0.36-2.292,0.655-3.014   c0,6.518,5.534,11.266,5.534,13.983c0,0.623-0.458,1.115-1.146,1.115c-0.753,0-1.114-0.591-1.114-1.05   c0-0.229-0.033-0.294-0.131-0.294c-0.195,0-0.785,0.655-0.785,1.508c0,1.079,0.883,2.391,2.521,2.391   c1.865,0,2.881-1.574,2.881-2.982c0-3.437-6.713-8.645-6.713-14.211c0-0.951,0.162-2.49,0.852-3.668   c-4.323,2.782-5.665,6.484-5.665,9.726c0,2.817-0.098,4.223-1.539,4.223c-0.754,0-0.95-0.686-1.213-0.686   c-0.196,0-0.295,0.589-0.295,0.752C19.514,53.836,20.399,54.524,21.282,54.524"/>
	<path fill="#1766A6" d="M70.897,17.65c0.416-0.279,2.262,0.163,4.649-1.017c0.294-0.161,0.589-0.227,0.851-0.227   c1.148,0,0.853,1.309,1.902,1.309c0.817,0,1.868-0.688,2.491-0.688c0.976,0,2.385,3.079,2.385,4.52c0,1.67-2.517,2.686-5.499,2.686   c-4.353,0-6.976-3.799-6.976-6.256C70.701,17.781,70.8,17.715,70.897,17.65z M78.037,21.809c1.442,0,2.523-0.655,2.523-1.049   c0-0.129-0.196-0.228-0.623-0.228c-0.426,0-1.278-0.032-2.884-0.295c-1.378-0.229-2.426-0.753-2.819-0.753   c-0.131,0-0.197,0.065-0.197,0.163C74.037,20.5,75.611,21.809,78.037,21.809"/>
	<path fill="#1766A6" d="M21.971,66.87c-1.08,0.263-2.817,1.963-2.817,4.652c0,3.207,3.439,8.154,9.104,8.154   c4.78,0,5.96-3.308,5.96-5.537c0-4.944-3.044-8.416-7.006-8.416c-2.162,0-4.095,1.572-4.095,3.896c0,2.164,1.638,5.405,5.534,5.405   c1.834,0,2.914-1.312,2.914-2.814c0-1.475-1.342-3.504-3.308-3.504c-0.589,0-1.014,0.389-1.014,1.014   c0,0.784,1.079,1.572,2.423,1.572c0.326,0,0.589-0.066,0.721-0.132c0.064,0.101,0.098,0.263,0.098,0.394   c0,0.754-0.721,1.213-1.834,1.213c-1.67,0-3.275-1.244-3.275-3.213c0-1.176,1.016-2.027,2.489-2.027   c2.914,0,4.649,2.586,4.649,5.175c0,2.323-1.275,3.668-3.896,3.668C23.378,76.369,20.826,71.652,21.971,66.87"/>
	<path fill="#1766A6" d="M59.353,86.058c1.571,0,1.489-0.131,1.981-0.131c0.49,0,0.524,0.295,0.524,0.492   c0,0.721-1.606,1.605-4.455,1.605c-1.67,0-2.686-0.885-2.98-1.867c-1.637,1.048-4.125,1.998-6.582,1.998   c-6.712,0-8.415-2.917-10.512-3.864c-1.605-0.721-4.061,0.688-7.5-3.144c0.459,0.099,1.082,0.131,1.573,0.131   c3.011,0,4.616-1.471,4.616-3.831c0-0.296-0.033-0.62-0.066-0.914c0.918,0.36,3.015,1.93,3.507,4.713   c0.064,0.328,1.406,0.622,2.258,0.622c1.18,0,2.686-0.492,2.915-2.422c3.93-0.327,6.584-2.651,7.141-5.602   c1.406,0.459,3.011,1.736,3.404,2.393c0.557-0.196,1.211-0.295,1.964-0.295c1.048,0,2.228,0.197,3.635,0.623   c0.066-0.426,0.131-0.95,0.787-0.95c0.982,0,0.72,1.081,1.048,1.7c0.164,0.328,0.984,0.524,0.984,1.18   c0,0.624-0.527,0.854-0.854,0.854c-0.131,0-0.295-0.033-0.394-0.065c-0.654,0.229-0.688,4.942-3.438,4.942   c-2.029,0-3.896-1.67-4.716-3.764c-0.229-0.622-0.72-1.016-1.179-1.016c-0.523,0-0.818,0.099-1.439,0.787   c-1.768,1.93-4.716,3.6-8.351,3.6c-1.114,0-1.998-0.1-2.228-0.1c-0.132,0-0.132,0.033-0.132,0.065c0,0.23,1.113,1.115,3.537,1.115   c5.764,0,7.173-3.243,8.089-3.243c0.133,0,0.523,0,0.752,0.525C54.587,85.337,57.519,86.058,59.353,86.058z M56.814,79.513   c0,0.721,0.59,1.311,1.311,1.311s1.31-0.59,1.31-1.311c0-0.722-0.589-1.312-1.31-1.312S56.814,78.791,56.814,79.513"/>
	<path fill="#1766A6" d="M82.75,63.169c-0.459,0-0.95,0.361-0.95,1.247c0,0.979,0.754,1.603,1.179,1.798   c0.23,0.133,0.591,0.264,0.948,0.264c0.951,0,1.706-0.264,1.706-1.051C85.632,64.416,84.156,63.169,82.75,63.169z M79.217,65.198   c-0.688,0-4.492,5.076-6.943,5.076c-0.589,0-1.081-1.113-1.081-1.961c0-0.459,0.294-0.787,1.345-1.018   c5.631-1.277,4.385-5.503,9.195-5.503c2.652,0,5.604,1.804,5.604,5.863c0,4.323-6.153,9.692-7.071,9.692   c-0.754,0-1.573-1.08-1.573-1.8c0-0.229,0.099-0.524,0.754-0.786c3.14-1.246,4.939-4.127,4.939-5.602   c0-0.328-0.163-0.652-0.589-0.652c-0.556,0-2.94,5.434-5.596,5.434c-1.837,0-3.705-1.666-3.705-2.454   c0-1.312,5.311-3.733,5.311-5.569C79.806,65.229,79.479,65.198,79.217,65.198"/>
	<path fill="#1766A6" d="M14.406,22.268c0,0-0.949,0.719-2.128,0.719c-1.407,0-2.521-1.047-2.521-2.521   c0-1.016,0.524-2.063,1.735-2.588c-0.032,0.197-0.032,0.36-0.032,0.557C11.459,20.303,12.507,21.71,14.406,22.268z M21.414,28.556   c-0.72,0.85-1.474,2.292-1.474,3.765c0,1.768,1.082,3.241,2.752,3.241c1.604,0,2.358-1.375,2.358-2.782   C25.05,30.586,23.052,29.045,21.414,28.556z M10.543,29.865c-0.062,0.101-0.099,0.23-0.099,0.361c0,0.295,0.328,0.622,0.621,0.622   c0.262,0,0.426-0.065,0.557-0.065c0.785,0,1.67,0.556,2.947,0.556c0.752,0,1.637-0.23,2.75-0.785   c2.358-1.18,3.276-4.094,3.276-4.586c0-0.623-0.5-0.541-0.918-1.114c-0.418-0.571-0.258-1.076-0.524-1.343   c-0.151-0.153-0.621-0.163-1.212-0.229c-0.197-0.021-0.459-0.033-0.721-0.033c-1.079,0-2.36,0.133-3.798,1.049   C10.582,26.111,11,29.112,10.543,29.865z M18.238,25.804c0.227,0.309,0.853,0.689,0.853,0.918c0,0.457-0.264,1.048-0.787,1.048   c-1.147,0-2.063-1.736-2.063-2.72c0-0.621,0.361-0.686,0.851-0.686c0.229,0,0.328,0.033,0.491,0.131   C17.877,24.659,17.877,25.313,18.238,25.804z M15.224,29.8c-1.08,0-2.259-1.342-2.259-2.555c0-0.654,0.491-1.474,0.851-1.474   c0.131,0,0.197,0.099,0.229,0.329c0.196,1.604,1.245,2.522,2.228,2.979c0.098,0.065,0.164,0.098,0.164,0.163   C16.437,29.472,15.814,29.8,15.224,29.8z M18.009,21.547c0.163-0.525,0.294-1.178,0.294-1.9c0-1.571-0.722-3.962-2.948-3.962   c-1.276,0-2.195,1.015-2.195,2.227C13.16,20.5,15.748,21.547,18.009,21.547z M9.527,34.646c0,2.488,0.754,3.668,2.096,3.668   c1.048,0,2.456-0.754,4.125-2.195c-1.276,0.295-2.26,0.492-3.143,0.492C11.426,36.611,10.51,36.152,9.527,34.646z M10.674,31.731   c-0.032,0.165-0.032,0.328-0.032,0.491c0,1.539,0.817,2.391,1.898,2.391c0.816,0,1.768-0.491,2.617-1.573   c-0.358,0.065-0.785,0.098-1.178,0.098C12.769,33.138,11.459,32.812,10.674,31.731z M18.697,31.273   c-0.755,0.196-2.326,1.113-2.326,2.75c0,1.178,0.916,1.933,2.063,1.933c0.59,0,1.015-0.132,1.277-0.328   c-0.916-0.884-1.244-1.867-1.244-2.848C18.467,32.091,18.565,31.666,18.697,31.273z M19.875,22.3c0,0.72,0.589,1.311,1.309,1.311   c0.721,0,1.311-0.59,1.311-1.311c0-0.72-0.59-1.311-1.311-1.311C20.464,20.989,19.875,21.58,19.875,22.3z M21.577,25.247   c0,0.721,0.591,1.311,1.313,1.311c0.719,0,1.309-0.59,1.309-1.311c0-0.719-0.59-1.309-1.309-1.309   C22.167,23.938,21.577,24.528,21.577,25.247"/>
	<path fill="#1766A6" d="M72.668,41.326c0-0.654,0.59-1.211,1.237-1.211c0.722,0,1.279,0.557,1.279,1.211   c0,0.753-0.558,1.278-1.279,1.278C73.258,42.604,72.668,42.079,72.668,41.326z M61.17,31.24c0,0.72,0.591,1.31,1.309,1.31   c0.723,0,1.313-0.59,1.313-1.31c0-0.719-0.591-1.309-1.313-1.309C61.761,29.931,61.17,30.521,61.17,31.24z M60.058,35.857   c0,1.016,0.849,1.866,1.866,1.866c1.014,0,1.868-0.85,1.868-1.866c0-1.014-0.854-1.867-1.868-1.867   C60.907,33.99,60.058,34.843,60.058,35.857z M64.185,33.761c0,1.115,0.885,1.998,1.992,1.998c1.113,0,2.001-0.883,2.001-1.998   c0-1.113-0.888-1.997-2.001-1.997C65.07,31.764,64.185,32.648,64.185,33.761z M64.35,29.504c0,0.689,0.557,1.247,1.238,1.247   c0.688,0,1.245-0.558,1.245-1.247c0-0.686-0.558-1.243-1.245-1.243C64.907,28.261,64.35,28.818,64.35,29.504z M70.275,26.362   c0,0.686,0.557,1.243,1.246,1.243c0.688,0,1.246-0.557,1.246-1.243c0-0.689-0.558-1.246-1.246-1.246   C70.832,25.116,70.275,25.673,70.275,26.362z M67.817,30.39c0,1.145,0.95,2.094,2.097,2.094c1.148,0,2.099-0.949,2.099-2.094   c0-1.148-0.95-2.096-2.099-2.096C68.767,28.294,67.817,29.242,67.817,30.39z M64.447,38.052c0,0.721,0.59,1.309,1.305,1.309   c0.721,0,1.312-0.588,1.312-1.309c0-0.721-0.591-1.31-1.312-1.31C65.037,36.742,64.447,37.331,64.447,38.052z M68.735,35.431   c0,0.721,0.589,1.311,1.312,1.311c0.72,0,1.31-0.59,1.31-1.311c0-0.719-0.59-1.309-1.31-1.309   C69.324,34.122,68.735,34.712,68.735,35.431z M67.523,40.049c0,1.244,1.015,2.26,2.261,2.26c1.245,0,2.263-1.016,2.263-2.26   c0-1.244-1.018-2.26-2.263-2.26C68.538,37.789,67.523,38.805,67.523,40.049z M72.241,37.264c0,0.853,0.689,1.541,1.535,1.541   c0.852,0,1.54-0.688,1.54-1.541c0-0.85-0.688-1.538-1.54-1.538C72.93,35.726,72.241,36.414,72.241,37.264z M72.143,33.138   c0,0.755,0.624,1.377,1.369,1.377c0.755,0,1.378-0.622,1.378-1.377c0-0.752-0.623-1.374-1.378-1.374   C72.767,31.764,72.143,32.386,72.143,33.138"/>
	<path fill="#1766A6" d="M75.479,76.106c-0.852,0.656-2.844,2.127-6.155,2.127c-1.769,0-2.556-0.557-2.818-0.557   c-0.328,0-0.688,0.327-1.049,0.754c-0.778,0.918-1.795,2.621-1.795,4.486c0,1.309,1.017,2.617,2.909,2.617   c6.13,0,10.711-3.83,10.711-6.939C77.282,76.827,76.234,76.106,75.479,76.106z M73.776,75.746c0.265-0.226,0.327-0.589,0.327-0.951   v-0.753c0-0.951-1.435-1.505-3.402-1.505c-2.393,0-3.671,1.078-3.671,1.538v1.506c0,0.624,1.443,1.246,3.213,1.246   C71.652,76.827,72.93,76.467,73.776,75.746z M73.512,78.988c0.165,0,0.36,0.097,0.36,0.688c0,0.719-0.326,1.668-1.5,2.42   c-0.819,0.559-1.934,1.018-3.572,1.047c0.262-0.783,0.459-1.604,0.459-2.386c0-0.263-0.032-0.46-0.065-0.754h0.426   C72.209,80.004,73.324,78.988,73.512,78.988"/>
	<path fill="#1766A6" d="M61.006,38.97c0.36,2.782,4.097,1.374,4.097,4.746c0,0.492-0.131,1.214-0.131,1.835   c0,0.721,0.064,1.343,0.616,1.343c0.556,0,0.688-0.392,0.688-0.917s-0.132-1.179-0.132-1.539c0-1.147,0.82-1.408,1.313-1.408   c1.245,0,2.195,1.277,4.064,1.277c-0.427,2.096-4.753,1.539-4.753,3.832c0,1.147,1.147,1.407,1.901,1.407   c0.688,0,0.918-0.098,0.918-0.686c0-0.329-0.066-0.689-0.066-0.918c0-0.132,0.099-0.263,0.263-0.263   c0.723,0,4.253,2.686,4.253,3.506c0,0.752-3.729,1.505-4.81,1.505c-0.328,0-0.394-0.229-0.394-0.36   c0-0.229,0.557-0.917,0.557-1.309c0-0.295-0.491-0.492-1.803-0.492c-0.623,0-1.082,0.066-1.082,0.558   c0,0.882,1.442,1.964,1.442,2.781c0,0.656-0.393,1.049-1.442,1.049c-0.885,0-2.223-0.689-2.223-1.834   c0-0.917,0.945-1.832,0.945-2.39c0-0.164-0.125-0.426-0.518-0.426c-1.214,0-1.541,3.208-5.833,3.569   c0.688-0.622,1.276-1.31,1.276-2.716c0-0.688-0.162-1.246-0.162-1.998c0-0.983,0.457-1.475,1.112-1.475   c1.211,0,1.801,1.702,2.59,1.702c0.427,0,0.885-0.391,0.885-0.981c0-2.489-4.783-2.129-4.783-5.633   C59.795,41.785,60.121,40.606,61.006,38.97z M76.626,48.565c0,0.817,0.264,1.767,1.083,1.767c0.688,0,1.277-1.046,1.277-2.193   c0-1.31-0.229-2.326-0.229-2.851c0-0.228,0.099-0.326,0.229-0.326c0.492,0.033,0.95,1.375,1.476,1.375   c0.59,0,1.469-1.082,1.828-1.082c0.099,0,0.131,0.132,0.131,0.164c0,0.492-0.754,1.574-0.754,1.999c0,0.36,1.901,0.425,1.901,0.753   c0,0.492-1.993,0.492-2.942,0.918c-0.917,0.392-1.477,0.883-1.477,1.539c0,0.655,0.656,0.785,1.574,0.785   c2.188,0,3.728-1.178,4.219-1.178c0.098,0,0.163,0.064,0.163,0.163c0,0.328-1.113,1.408-1.113,1.9c0,0.556,2.032,1.209,1.999,1.538   c-0.032,0.098-0.164,0.13-0.393,0.13c-0.362,0-0.918-0.098-1.345-0.098c-0.262,0-0.491,0.032-0.591,0.163   c-0.227,0.263,0.066,1.999-0.39,1.999c-0.427,0-1.541-3.864-4.057-3.864c-0.361,0-0.623,0.295-0.623,0.786   c0,1.309,1.278,2.815,2.491,3.536c0.549,0.361,1.468,0.721,1.468,0.919c0,0.391-2.091,0.032-2.091,0.686   c0,0.59,0.262,1.476,0.262,1.998c0,0.164-0.033,0.359-0.229,0.359c-0.393,0-1.345-1.8-1.803-1.8c-0.393,0-1.245,1.08-1.606,1.08   c-0.098,0-0.163-0.098-0.163-0.195c0-0.754,1.213-2.456,1.213-4.127c0-0.786-0.099-2.489-1.05-2.489   c-0.786,0-1.672,1.244-2.065,2.489c-0.228,0.72-0.065,3.504-0.59,3.504c-0.491,0-0.36-1.866-1.017-1.866   c-0.483,0-1.532,0.883-1.893,0.883c-0.066,0-0.132-0.033-0.132-0.098c0-0.392,0.951-1.67,0.951-1.932   c0-0.491-2.163-0.556-2.163-0.949c0-0.23,0.852-0.393,1.638-0.525c1.666-0.295,4.123-1.506,4.123-3.208   c0-1.899-1.835-2.719-3.041-3.505c-0.623-0.393-1.311-0.719-1.311-0.981c0-0.263,0.786-0.263,1.114-0.263   c0.491,0,0.977-0.033,0.977-0.425c0-0.296-0.066-0.884-0.066-1.343c0-0.328,0.032-0.59,0.165-0.59c0.491,0,1.179,1.604,1.508,1.604   c0.523,0,1.244-1.31,1.737-1.31c0.162,0,0.229,0.099,0.229,0.393C77.25,46.009,76.626,47.384,76.626,48.565"/>
	<path fill="#1766A6" d="M61.957,57.634c1.508,0.197,1.869,0.72,1.869,1.147c0,0.721-0.656,0.949-1.28,0.949   c-0.457,0-0.982-0.098-1.539-0.098c-0.722,0-1.441,0.164-2.03,0.852c0.425,0.065,1.048,0.361,1.048,1.017   c0,1.899-5.272,0.325-5.272,5.207c0,2.586,2.686,5.404,6.745,5.404c2.099,0,3.442-0.688,3.442-1.476   c0-0.621-1.113-0.197-1.113-0.721c0-0.229,0.393-0.656,0.393-1.018c0-0.158-0.131-0.455-0.393-0.455   c-0.592,0-1.706,0.947-3.966,0.947c-1.769,0-3.505-1.012-3.505-2.389c0-0.294,0.132-0.459,0.328-0.459   c0.197,0,0.458,0.132,0.688,0.132c0.197,0,0.229-0.132,0.229-0.491c0-0.361,0-1.377,0.621-1.377c0.624,0,1.803,2.293,6.325,2.293   c1.501,0,4.418-0.293,5.5-1.277c-0.033,3.603-2.853,8.351-8.745,8.351c-6.124,0-9.399-4.913-9.399-9.433   c0-5.009,4.092-9.56,9.694-9.56c1.439,0,2.654,0.49,2.654,1.113C64.25,57.145,62.12,56.62,61.957,57.634z M72.012,59.372   c0.229,0.358,0.328,0.719,0.328,1.046c0,0.918-0.623,1.769-0.623,2.72c0,1.08,0.82,1.963,2.059,1.963   c1.343,0,2.261-1.078,2.261-2.357C76.037,61.008,74.464,59.535,72.012,59.372z M61.17,61.467c0.326,0.326,0.426,0.654,0.426,0.982   c0,0.491-0.229,1.016-0.229,1.573c0,0.783,0.59,1.472,1.44,1.472c0.919,0,1.543-0.722,1.543-1.57   C64.35,62.679,63.068,61.467,61.17,61.467z M65.523,55.899c3.441,0.655,5.309,3.243,5.309,5.667c0,1.671-1.048,3.207-2.884,3.207   c-1.672,0-2.878-1.145-2.878-2.979c0-1.375,1.074-2.816,1.074-4.225C66.144,57.013,65.981,56.456,65.523,55.899z M67.227,60.255   c0,0.458,0.328,0.819,0.787,0.819c0.523,0,0.852-0.459,0.852-0.983c0-0.687-0.623-1.637-1.213-1.637   c-0.263,0-0.164,0.393-0.229,0.819C67.39,59.599,67.227,59.992,67.227,60.255"/>
	<path fill="#1766A6" d="M31.076,26.558c1.113,0,2.389-6.026,2.389-7.042c0-0.262-0.097-0.459-0.326-0.459   c-1.016,0-2.423,5.732-2.423,7.01C30.715,26.296,30.78,26.558,31.076,26.558z M39.099,28.359c0.817,0,1.734-3.145,1.734-5.11   c0-0.426-0.065-0.883-0.263-0.883c-0.688,0-1.834,3.242-1.834,5.01C38.737,28.064,38.902,28.359,39.099,28.359z M33.758,25.444   c0.36,0,0.819-0.395,1.673-1.342c0.064-0.426,0.064-0.82,0.064-1.311c0-0.654-0.262-1.375-0.654-1.375   c-0.984,0-1.474,2.62-1.474,3.309C33.368,25.116,33.563,25.444,33.758,25.444z M38.246,24.102c0-0.558-0.132-0.689-0.262-0.689   c-0.328,0-0.687,0.394-1.211,1.278c0.065,1.179,0.262,1.703,0.589,1.703C37.722,26.394,38.246,25.247,38.246,24.102z    M40.768,20.237c2.162,0,3.143,1.867,3.143,3.963c0,0.916-0.26,2.26-0.686,2.26s-0.36-0.754-0.426-1.442   c-0.065-0.884-0.23-1.08-0.525-1.08c-0.557,0-0.916,1.309-0.916,2.522c0,0.752,0.131,1.604,0.719,1.604   c0.328,0,0.623-0.164,0.82-0.36c-0.131,1.505-1.246,2.817-2.817,2.817c-2.882,0-3.963-3.374-4.289-5.339   c-1.736,1.834-3.34,3.177-6.223,3.177c-2.684,0-3.896-1.965-3.896-3.831c0-0.558,0.196-1.998,0.885-1.998   c0.818,0,0.098,2.684,1.702,2.684c0.394,0,1.112-0.328,1.507-1.407c0.229-0.656,0.36-1.342,0.36-1.933   c0-0.885-0.196-1.44-0.851-1.44c-0.558,0-1.246,0.424-1.475,0.654c0.787-2.358,2.686-3.569,4.779-3.569   c2.59,0,3.964,2.292,3.964,4.847c0,0.359-0.033,0.752-0.099,1.113C37.558,21.645,39.099,20.237,40.768,20.237"/>
	<path fill="#1766A6" d="M34.644,29.045c-1.408,0-1.473,1.706-1.473,5.142c-1.049-2.259-2.783-4.683-4.814-4.683   c-1.375,0-1.898,0.918-1.898,2.521c0,0.328,0.032,0.82,0.098,1.113c0.164-0.555,0.688-0.785,1.342-0.785   c1.41,0,3.112,1.08,4.225,2.555c-1.276-0.229-2.521-0.459-3.568-0.459c-0.656,0-1.245,0.066-1.736,0.295   c-0.95,0.425-2.227,1.834-2.227,3.963c0,0.328,0.033,0.687,0.099,1.08c1.146-2.555,4.191-3.701,6.156-3.701   c0.394,0,0.687,0.033,0.917,0.066c-1.016,0.916-1.244,2.521-1.311,3.602c-0.031,0.524-0.229,0.558-0.59,0.558   c0,1.079,0.853,2.685,0.853,3.503c0,0.295-0.164,0.557-0.327,0.623c0,1.441,1.439,2.489,1.439,3.405   c0,0.229-0.064,0.426-0.164,0.525c0.1,0.59,1.684,1.581,1.889,2.078c0.252,0.604,0.535,0.706,0.699,0.706   c0.557,0,1.439-0.656,1.439-1.246c0-0.196-0.164-0.425-0.293-0.524c-0.623-0.457-0.951-1.44-1.213-2.094   c-0.23,0-0.526-0.097-0.63-0.483c-0.179-0.678-0.188-1.941-0.45-2.695c-0.426-0.098-0.623-0.262-0.623-1.146   c0-0.426,0.263-2.097,0.263-2.687c-0.196,0-0.458-0.131-0.458-0.524c0-1.047,1.049-1.866,1.342-3.208   c1.867,1.374,2.324,2.782,2.324,4.028c0,0.653-0.098,1.276-0.229,1.867c1.376-0.689,3.439-1.704,3.439-3.767   c0-1.213-0.557-2.555-4.258-3.079c1.146-0.426,2.588-0.654,3.799-0.654c2.097,0,3.308,0.654,3.569,2.127   c0.426-0.654,0.754-1.408,0.754-2.095c0-1.606-1.344-2.652-3.046-2.652c-1.998,0-3.766,1.046-5.666,2.325   c0.854-1.768,1.44-2.816,2.49-2.816c0.163,0,0.327,0.033,0.491,0.066C36.904,30.455,35.431,29.045,34.644,29.045"/>
	<path fill="#1766A6" d="M89.82,52.657c1.64,0,2.95,2.128,2.95,4.618c0,2.652-1.246,5.535-3.467,7.498   c-0.033-4.42-5.443-3.012-5.443-6.22c0-1.375,0.985-2.293,2.165-2.293c1.049,0,1.868,0.295,2.458,0.886   c-0.59-0.558-0.885-1.345-0.885-2.097C87.598,53.802,88.385,52.657,89.82,52.657"/>
	<path fill="#1766A6" d="M60.58,21.547c0.853,0.819,1.604,1.178,2.522,1.178c0.362,0,0.789-0.097,1.019-0.097   c0.295,0,0.49,0.13,0.49,0.359c0,0.361-0.328,0.951-0.72,1.279c0.392,0.163,0.819,0.229,1.278,0.229c1.86,0,3.99-1.18,3.99-4.126   c0.395,0.522,0.624,1.604,0.624,2.096c0,3.569-2.623,4.944-5.041,4.944c-1.573,0-2.361-0.525-2.559-0.525   c-0.621,0-0.588,1.246-1.014,1.213c-0.754-0.131-1.44-1.801-1.44-3.569C59.73,23.479,59.992,22.366,60.58,21.547z M65.523,19.156   c-0.262-0.426-1.24-0.654-1.697-0.654c-1.444,0-2.427,1.014-2.623,1.932c-0.131-0.328-0.229-0.721-0.229-1.114   c0-1.441,0.983-3.209,3.377-3.209c2.09,0,2.909,1.113,3.205,1.113c0.327,0,0.655-0.328,0.918-0.328c0.36,0,0.36,0.557,0.36,0.951   c0,1.309-0.591,3.569-2.065,4.388c-0.263-0.557-0.787-1.18-1.633-1.572c-0.229-0.098-0.327-0.294-0.327-0.491   C64.808,19.811,65.135,19.352,65.523,19.156"/>
	<path fill="#1766A6" d="M37.82,12.017c0,1.146,4.093,6.746,4.88,6.746c0.656,0,1.146-1.146,1.146-2.13   c0-0.26-0.066-0.521-0.195-0.719c-0.59-0.819-4.749-4.094-5.667-4.094C37.885,11.82,37.82,11.919,37.82,12.017z M13.75,8.644   c0,0.656-2.488,2.849-3.371,2.849c-0.327,0-0.427-0.392-0.427-0.752c0-0.654,0.295-1.572,0.656-1.868   c0.424-0.393,1.407-0.587,2.16-0.587C13.226,8.286,13.75,8.382,13.75,8.644z M43.651,10.544c0-1.966-5.313-5.535-5.372-7.073   c-0.006-0.141,0.071-0.281,0.19-0.406c0.91-0.96,4.689-1.66,4.689-2.478c0-0.424-0.787-0.424-1.18-0.424   c-3.045,0-7.499,1.113-7.499,2.193c0,1.115,3.995,3.833,3.995,5.176c0,0.36-0.229,0.491-0.59,0.491   c-1.112,0-3.536-1.344-4.682-1.344c-0.524,0-0.722,0.36-0.722,0.886c0,1.571,1.867,4.551,1.867,5.433   c0,0.099-0.033,0.23-0.164,0.23c-0.59,0-3.371-3.273-4.355-3.273c-0.359,0-0.393,0.49-0.393,1.211v1.113   c0,0.753-0.033,1.212-0.391,1.212c-0.854,0-1.246-2.39-2.064-2.39c-0.852,0-1.016,4.256-1.833,4.256   c-0.951,0-0.132-4.683-1.049-4.683c-1.015,0-2.162,3.112-2.883,3.112c-0.261,0-0.326-0.263-0.326-0.492   c0-0.949,0.555-2.488,0.555-3.404c0-0.46-0.131-0.721-0.522-0.721c-1.017,0-3.243,1.637-4.094,1.637   c-0.131,0-0.295-0.065-0.295-0.197c0-0.784,3.569-3.274,3.569-4.387c0-1.082-4.914-0.36-4.914-1.606   c0-1.047,3.507-2.128,3.507-3.209c0-0.95-4.16-1.374-5.764-1.374c-1.933,0-2.98,0.227-2.98,0.784c0,0.852,4.389,1.115,4.389,1.867   c0,0.721-4.553,2.653-4.553,3.766c0,0.983,6.418,0.065,6.418,1.082c0,1.112-5.598,5.925-5.598,7.53   c0,0.361,0.262,0.525,0.621,0.525c1.703,0,6.122-3.242,7.335-3.242c0.426,0,0.459,0.523,0.459,0.982   c0,0.852-0.294,2.161-0.294,3.112c0,0.752,0.196,1.276,0.85,1.276c1.214,0,2.325-2.063,3.146-2.063   c1.047,0,0.425,6.058,1.997,6.058c1.342,0,1.898-6.549,2.75-6.549s1.541,1.899,2.326,1.899c0.981,0,0.523-3.307,1.572-3.307   c1.145,0,4.42,3.93,5.894,3.93c0.458,0,0.621-0.361,0.621-0.82c0-1.736-2.422-5.664-2.422-6.908c0-0.327,0.097-0.426,0.457-0.426   c1.277,0,5.012,1.768,6.779,1.768C43.292,11.297,43.651,10.97,43.651,10.544z M40.244,4.06c0,0.589,2.063,1.867,3.014,1.867   c0.556,0,0.72-0.754,0.72-1.54c0-0.982-0.424-1.015-1.277-1.015C41.62,3.372,40.244,3.667,40.244,4.06z M32.548,0.719   c0-0.197-0.982-0.394-2.324-0.394c-2.129,0-1.834,1.771-3.471,1.771c-1.703,0-1.279-1.836-3.44-1.836c-1.31,0-2.52,0.23-2.52,0.524   c0,0.394,1.538,0.23,1.538,1.312c0,1.145-3.308,1.473-3.308,2.161c0,0.229,0.261,0.327,0.589,0.327   c0.722,0,1.866-0.327,2.686-0.327c0.459,0,0.885,0.097,0.885,0.523c0,0.819-1.77,2.293-1.77,2.948c0,0.197,0.163,0.263,0.327,0.263   c0.656,0,1.77-1.671,2.817-1.671c1.736,0,0.591,3.7,1.539,3.7c0.982,0,0.557-3.636,1.965-3.636c1.148,0,1.998,2.522,2.784,2.522   c0.197,0,0.36-0.163,0.36-0.393c0-0.686-0.982-2.096-0.982-3.012c0-0.557,0.393-0.82,0.917-0.82c0.752,0,1.768,0.459,2.323,0.459   c0.196,0,0.393-0.065,0.393-0.294c0-0.786-2.912-1.637-2.912-2.652C30.945,1.178,32.548,1.178,32.548,0.719"/>
	<path fill="#1766A6" d="M90.606,6.026c0,2.913-2.123,5.14-5.959,5.762c0.427,0.032,0.82,0.032,1.214,0.032   c4.483,0,6.123-2.029,6.123-3.731C91.984,7.138,91.459,6.288,90.606,6.026z M85.074,9.332c0-2.325-5.563-2.915-5.563-3.438   c0-0.425,3.106-1.147,4.711-1.18c-2.456-3.143-5.956-2.815-5.956-3.372c0-0.328,2.621-0.984,5.041-0.984   c2.03,0,3.93,0.459,3.93,1.998c0,0.853-0.688,1.738-0.688,3.046c0,0.721,0.358,1.343,1.311,1.343c1.018,0,1.245-1.08,1.245-2.228   c0-0.948-0.163-1.669-0.163-2.128c0-1.375,0.943-2.291,2.287-2.291c1.114,0,1.377,0.489,3.016,0.489   c-0.886,0.526-1.213,1.476-1.213,1.933c0,1.377,0.887,2.326,0.887,5.143c0,5.172-4.846,7.006-10.776,7.006   c-1.63,0-3.369-0.131-5.074-0.392c-0.261-0.033-0.327-0.098-0.327-0.262c0-0.426,2.328-0.656,2.328-2.75   c0-0.82-0.263-1.605-0.263-1.899c0-0.164,0.131-0.263,0.263-0.263c0.491,0,1.476,1.899,3.304,1.899   C83.86,11.002,85.074,10.838,85.074,9.332z M90.41,2.096c0,0.457,0.36,0.817,0.819,0.817s0.82-0.36,0.82-0.817   c0-0.459-0.361-0.82-0.82-0.82S90.41,1.637,90.41,2.096"/>
	<path fill="#1766A6" d="M87.5,32.353c0-0.687-1.738-0.752-1.901-2.685c-0.034-0.294-0.132-0.817-0.493-0.817   c-0.589,0-0.131,1.801-0.786,1.801c-1.506,0-1.997-2.948-2.554-2.948c-0.132,0-0.288,0.098-0.288,0.491   c0,0.361,0.066,0.59,0.066,1.014c0,0.427-0.1,0.722-0.492,0.722c-0.885,0-1.672-2.064-2.426-2.064   c-0.164,0-0.327,0.099-0.327,0.263c0,0.393,0.654,1.112,0.654,1.473c0,0.787-2.13,0.36-2.13,1.016c0,0.295,0.294,0.392,0.688,0.392   c0.689,0,1.771-0.293,2.328-0.293c0.328,0,0.819,0.065,0.819,0.489c0,0.459-1.18,1.048-1.18,1.474c0,0.197,0.196,0.294,0.36,0.294   c0.885,0,2.451-1.538,3.565-1.538c0.196,0,0.687,0.098,0.687,0.393c0,0.425-1.113,1.177-1.113,1.8c0,0.164,0.1,0.36,0.296,0.36   c0.586,0,1.373-1.538,2.488-1.538c0.426,0,1.049,0.164,1.378,0.164C87.402,32.616,87.5,32.452,87.5,32.353z M88.352,48.236   c0.525-1.636,1.181-2.784,2.254-4.552c-1.073-0.555-3.926-1.736-3.926-3.668c0-2.26,2.817-4.028,3.401-4.028   c0.263,0,0.328,0.23,0.328,0.656c0,1.178-0.557,3.077-0.557,4.093c0,0.916,0.59,1.802,1.114,1.802c0.557,0,2.097-1.965,2.097-3.898   c0-3.472-3.048-4.519-3.991-4.519c-0.885,0-2.491,1.44-6.259,1.44c-7.039,0-8.645-6.973-8.645-10.02   c0-0.131,0.031-0.164,0.064-0.164c0.164,0,0.854,0.853,3.081,0.853c1.147,0,2.196-0.296,3.868-0.296   c3.923,0,5.661,2.72,8.087,6.189c1.467,0.916,4.975,2.391,4.975,6.55c0,3.668-3.9,5.698-4.844,9.628   c1.5-0.163,2.386-2.85,3.926-2.85c0.787,0,1.147,0.623,1.147,1.607c0,1.439-0.82,3.602-2.393,4.944   c0.032-0.131,0.032-0.296,0.032-0.492c0-0.916-0.359-2.225-1.41-2.225c-1.631,0-2.155,1.768-3.072,3.24   c-0.951-3.339-2.229-6.353-4.521-8.187c-2.319-1.866-6.319-0.852-6.319-4.257c0-0.918,0.591-2.227,0.591-3.275   c0-0.36-0.066-0.688-0.264-0.95c3.147,1.18,2.032,3.274,3.968,5.436c1.205,1.377,4.547,2.686,6.48,8.351   c0.032-0.163,0.065-0.588,0.065-0.883c0-4.847-6.416-9.597-6.973-11.562c3.727,0.426,4.382,1.344,6.152,6.256   C87.171,44.471,88.352,46.993,88.352,48.236"/>
	<path fill="#1766A6" d="M70.439,13.589c-2.295,0-3.802-1.145-3.802-1.736c0-0.295,0.196-0.49,0.46-0.49   c0.72,0,2.293,1.112,2.816,1.112c0.133,0,0.23-0.064,0.23-0.261c0-0.59-0.557-1.572-0.557-2.062c0-0.132,0.099-0.229,0.295-0.229   c0.884,0,2.195,0.36,2.885,0.36c0.229,0,0.294-0.131,0.294-0.263c0-0.72-2.131-2.128-2.131-2.554c0-0.393,2.648-0.984,2.648-1.604   c0-0.656-3.6-0.197-3.6-0.82c0-0.458,0.689-1.244,0.689-1.604c0-0.164-0.132-0.229-0.36-0.229c-0.295,0-1.868,0.622-2.524,0.622   c-0.327,0-0.721-0.065-0.721-0.525c0-0.753,1.278-1.571,3.278-1.571c3.237,0,5.172,2.227,5.172,5.96   C75.513,12.411,72.209,13.589,70.439,13.589z M64.055,7.368c0-0.361-1.28-1.048-1.28-1.441c0-0.065,0.064-0.098,0.163-0.098   c0.362,0,0.985,0.131,1.478,0.131c0.426,0,0.491-1.834,0.813-1.834c0.229,0,0.621,1.736,0.984,1.736   c0.425,0,1.211-0.492,1.539-0.492c0.065,0,0.131,0.032,0.131,0.099c0,0.229-0.819,1.112-0.819,1.374   c0,0.295,1.836,0.656,1.836,0.918c0,0.328-1.869,0.295-1.869,0.59c0,0.227,0.689,1.145,0.689,1.44c0,0.066-0.034,0.099-0.099,0.099   c-0.263,0-1.278-0.46-1.573-0.46c-0.361,0-0.944,1.343-1.239,1.343c-0.098,0-0.163-0.131-0.163-0.295l-0.066-1.309   c0-0.131-0.064-0.263-0.229-0.263c-0.394,0-1.148-0.033-1.379-0.033c-0.164,0-0.229-0.032-0.229-0.098   C62.742,8.513,64.055,7.597,64.055,7.368z M63.102,12.736c0.526,0,0.624,1.279,0.724,2.031c0.065,0.394,0.131,0.426,0.295,0.426   c0.394,0,1.015-1.506,1.436-1.506c0.621,0,2.294,1.736,5.079,1.736c3.96,0,7.696-2.785,7.696-7.695   c0-4.749-3.345-7.533-7.959-7.533c-2.194,0-3.802,1.081-4.654,1.081C65.202,1.309,64.416,0,64.021,0   c-0.163,0-0.327,0.325-0.327,0.883c0,0.361,0,1.506-0.394,1.506c-0.788,0-3.832-2.258-3.832-1.441c0,0.754,2.028,3.047,2.028,3.636   S59.5,5.731,59.5,6.123c0,0.72,2.128,0.851,2.128,1.769c0,0.916-2.228,1.637-2.228,2.325c0,0.556,2.228,0.164,2.228,0.851   s-1.637,2.98-1.637,3.633c0,0.165,0.032,0.165,0.162,0.165C60.776,14.866,62.643,12.736,63.102,12.736"/>
	<path fill="#1766A6" d="M48.268,70.243c0,0.295-0.099,0.623-0.361,0.949c-0.358-0.654-1.375-0.982-1.834-0.981   c-3.373,0-2.096,4.88-5.698,4.88c-1.506,0-1.638-0.197-2.193-0.197c-0.23,0-0.361,0.099-0.361,0.295   c0,0.853,1.212,2.947,4.585,2.947s6.616-2.062,6.616-4.619c0-0.426-0.098-0.881-0.295-1.34c0.131-0.197,0.46-0.328,0.754-0.328   c0.523,0,0.818,0.592,1.309,0.592c0.525,0,0.918-0.395,0.918-0.918c0-0.428-0.229-0.721-0.621-0.92   c0.262-0.195,0.458-0.523,0.458-0.883c0-0.559-0.394-1.08-1.05-1.08c-0.295,0-0.49,0.1-0.719,0.324   c-0.064-0.586-0.393-1.143-1.016-1.143c-0.491,0-0.853,0.359-0.853,0.918C47.907,69.259,48.268,69.687,48.268,70.243"/>
	<path fill="#1766A6" d="M30.322,64.154c2.62,0.651,3.93,2.06,4.191,3.731c0.262,1.604,0.589,2.916,1.211,3.569   c0.819,0.919,2.424,1.733,3.833,1.733c1.179,0,2.127-0.389,2.127-1.471c0-1.18-1.604-3.832-3.962-3.832   c-0.229,0-0.524,0.034-0.852,0.034c-0.295,0-0.721-0.065-0.982-0.295c-0.523-0.46-0.688-2.916-1.67-4.389   c-1.08-1.638-2.259-2.097-3.863-2.097c-1.145,0-2.424,0.621-2.424,1.539C27.931,63.236,28.226,63.628,30.322,64.154z    M39.459,71.488c-0.984,0-2.457-1.05-2.457-1.64c0-0.492,0.459-0.754,0.817-0.754c0.82,0,2.292,1.018,2.292,1.869   C40.112,71.192,39.948,71.488,39.459,71.488"/>
	<path fill="#1766A6" d="M36.445,45.977c0-2.096,4.979-3.209,4.979-5.797c0-0.426-0.164-1.178-0.459-1.735   c1.734,0.949,3.012,2.555,3.012,3.864c0,2.26-2.357,3.308-2.357,4.717c0,1.637,2.521,1.899,2.521,3.929   c0,1.669-2.391,3.602-2.391,5.763c0,1.67,1.18,3.044,2.979,3.274c-0.589,0.131-1.112,0.229-1.669,0.229   c-3.309,0-6.714-2.717-6.714-5.96c0-1.604,0.688-3.01,1.734-4.026c0.919,0.786,1.835,1.309,2.425,1.309   c0.523,0,0.754-0.261,0.754-0.654C41.26,49.677,36.445,48.565,36.445,45.977z M46.892,62.515c-1.123,0.514-1.571,0.426-1.571,1.573   c0,0.425-0.099,0.979-0.099,1.275c0,0.393,0.065,0.623,0.523,0.623c1.18,0,3.047-1.997,3.047-3.701c0-0.46-0.263-0.653-0.558-0.653   C47.972,61.632,47.679,62.154,46.892,62.515z M46.761,60.156c0-1.473-3.046-1.506-3.046-3.733c0-0.558,0.359-1.506,1.081-2.523   c0.296,1.703,0.981,2.588,2.457,3.146c2.913,1.079,3.307,2.716,3.307,4.454c0,2.948-2.063,6.615-7.368,6.615   c-4.258,0-7.304-3.8-7.304-7.009c0-0.885,0.229-1.866,0.786-1.866c0.492,0,0.655,0.392,1.048,0.784   c1.475,1.476,3.079,1.867,5.404,1.867C45.222,61.892,46.761,61.041,46.761,60.156"/>
	<path fill="#1766A6" d="M23.57,60.866c0.08,0.684-0.409,1.301-1.092,1.381c-0.684,0.08-1.304-0.41-1.382-1.093   c-0.08-0.685,0.409-1.304,1.093-1.384S23.491,60.181,23.57,60.866z M17.45,62.154c0.139,1.118,1.182,1.966,2.359,1.835   c0.425-0.047,0.819-0.163,1.082-0.327c0.262,1.047,1.141,1.721,2.329,1.565c1.206-0.157,2.026-1.107,1.896-2.319   c-0.034-0.326-0.099-0.525-0.196-0.754c0,0,0.159-0.017,0.279-0.039c1.183-0.224,1.98-1.173,1.881-2.319   c-0.13-1.179-1.188-2.054-2.289-1.918c-0.427,0.052-0.821,0.215-1.084,0.444c-0.296-0.981-1.219-1.834-2.479-1.626   c-1.139,0.189-1.892,1.155-1.778,2.38c0.019,0.199,0.065,0.426,0.164,0.654c0,0-0.193,0.029-0.326,0.048   C18.332,59.92,17.295,60.882,17.45,62.154"/>
</g>
<script>(function (){var h,l=this;function m(a){return void 0!==a}function aa(a,b){var c=a.split("."),d=l;c[0]in d||!d.execScript||d.execScript("var "+c[0]);for(var e;c.length&amp;&amp;(e=c.shift());)!c.length&amp;&amp;m(b)?d[e]=b:d[e]?d=d[e]:d=d[e]={}}function ba(){}
function ca(a){var b=typeof a;if("object"==b)if(a){if(a instanceof Array)return"array";if(a instanceof Object)return b;var c=Object.prototype.toString.call(a);if("[object Window]"==c)return"object";if("[object Array]"==c||"number"==typeof a.length&amp;&amp;"undefined"!=typeof a.splice&amp;&amp;"undefined"!=typeof a.propertyIsEnumerable&amp;&amp;!a.propertyIsEnumerable("splice"))return"array";if("[object Function]"==c||"undefined"!=typeof a.call&amp;&amp;"undefined"!=typeof a.propertyIsEnumerable&amp;&amp;!a.propertyIsEnumerable("call"))return"function"}else return"null";
else if("function"==b&amp;&amp;"undefined"==typeof a.call)return"object";return b}function da(a){return"array"==ca(a)}function ea(a){var b=ca(a);return"array"==b||"object"==b&amp;&amp;"number"==typeof a.length}function p(a){return"string"==typeof a}function q(a){return"number"==typeof a}function r(a){return"function"==ca(a)}function t(a){var b=typeof a;return"object"==b&amp;&amp;null!=a||"function"==b}function ga(a){return a[ha]||(a[ha]=++ia)}var ha="closure_uid_"+(1E9*Math.random()&gt;&gt;&gt;0),ia=0;
function ja(a,b,c){return a.call.apply(a.bind,arguments)}function ka(a,b,c){if(!a)throw Error();if(2&lt;arguments.length){var d=Array.prototype.slice.call(arguments,2);return function(){var c=Array.prototype.slice.call(arguments);Array.prototype.unshift.apply(c,d);return a.apply(b,c)}}return function(){return a.apply(b,arguments)}}function u(a,b,c){u=Function.prototype.bind&amp;&amp;-1!=Function.prototype.bind.toString().indexOf("native code")?ja:ka;return u.apply(null,arguments)}var la=Date.now||function(){return+new Date};
function y(a,b){function c(){}c.prototype=b.prototype;a.I=b.prototype;a.prototype=new c;a.prototype.constructor=a;a.ia=function(a,c,f){for(var g=Array(arguments.length-2),k=2;k&lt;arguments.length;k++)g[k-2]=arguments[k];return b.prototype[c].apply(a,g)}};function ma(a){if(Error.captureStackTrace)Error.captureStackTrace(this,ma);else{var b=Error().stack;b&amp;&amp;(this.stack=b)}a&amp;&amp;(this.message=String(a))}y(ma,Error);ma.prototype.name="CustomError";function na(a,b){for(var c=a.split("%s"),d="",e=Array.prototype.slice.call(arguments,1);e.length&amp;&amp;1&lt;c.length;)d+=c.shift()+e.shift();return d+c.join("%s")}var oa=String.prototype.trim?function(a){return a.trim()}:function(a){return a.replace(/^[\s\xa0]+|[\s\xa0]+$/g,"")};function pa(){return Math.floor(2147483648*Math.random()).toString(36)+Math.abs(Math.floor(2147483648*Math.random())^la()).toString(36)}
function qa(a,b){for(var c=0,d=oa(String(a)).split("."),e=oa(String(b)).split("."),f=Math.max(d.length,e.length),g=0;0==c&amp;&amp;g&lt;f;g++){var k=d[g]||"",n=e[g]||"",w=RegExp("(\\d*)(\\D*)","g"),v=RegExp("(\\d*)(\\D*)","g");do{var z=w.exec(k)||["","",""],x=v.exec(n)||["","",""];if(0==z[0].length&amp;&amp;0==x[0].length)break;c=ra(0==z[1].length?0:parseInt(z[1],10),0==x[1].length?0:parseInt(x[1],10))||ra(0==z[2].length,0==x[2].length)||ra(z[2],x[2])}while(0==c)}return c}function ra(a,b){return a&lt;b?-1:a&gt;b?1:0};function sa(a,b){b.unshift(a);ma.call(this,na.apply(null,b));b.shift()}y(sa,ma);sa.prototype.name="AssertionError";function ta(a,b){throw new sa("Failure"+(a?": "+a:""),Array.prototype.slice.call(arguments,1));};function ua(){var a=va;return a[a.length-1]}var wa=Array.prototype;function A(a,b,c){for(var d=a.length,e=p(a)?a.split(""):a,f=0;f&lt;d;f++)f in e&amp;&amp;b.call(c,e[f],f,a)}function xa(a,b,c){for(var d=a.length,e=Array(d),f=p(a)?a.split(""):a,g=0;g&lt;d;g++)g in f&amp;&amp;(e[g]=b.call(c,f[g],g,a));return e}function ya(a,b,c){return 2&gt;=arguments.length?wa.slice.call(a,b):wa.slice.call(a,b,c)};function za(a,b,c){for(var d in a)b.call(c,a[d],d,a)}function Aa(a,b,c){var d={},e;for(e in a)d[e]=b.call(c,a[e],e,a);return d}function Ba(a){var b=0,c;for(c in a)b++;return b};var Ca;a:{var Da=l.navigator;if(Da){var Ea=Da.userAgent;if(Ea){Ca=Ea;break a}}Ca=""}function Fa(a){return-1!=Ca.indexOf(a)};var Ga=Fa("Mobile"),Ha=Fa("Macintosh"),Ia=Fa("Windows"),Ja,Ka="",La=/WebKit\/(\S+)/.exec(Ca);La&amp;&amp;(Ka=La?La[1]:"");Ja=Ka;function Ma(a,b,c,d,e){this.reset(a,b,c,d,e)}Ma.prototype.a=null;var Na=0;Ma.prototype.reset=function(a,b,c,d,e){"number"==typeof e||Na++;this.g=d||la();this.f=a;this.b=b;this.c=c;delete this.a};function Oa(a){this.s=a;this.a=this.o=this.b=this.f=null}function B(a,b){this.name=a;this.value=b}B.prototype.toString=function(){return this.name};var Pa=new B("OFF",Infinity),Qa=new B("SEVERE",1E3),Ra=new B("WARNING",900),Sa=new B("INFO",800),Ua=new B("CONFIG",700),Va=new B("FINE",500),Wa=new B("ALL",0),Xa=[Pa,new B("SHOUT",1200),Qa,Ra,Sa,Ua,Va,new B("FINER",400),new B("FINEST",300),Wa],Ya=null;function Za(){Ya={};for(var a=0,b;b=Xa[a];a++)Ya[b.value]=b,Ya[b.name]=b}
function $a(a){if(a.b)return a.b;if(a.f)return $a(a.f);ta("Root logger has no level set.");return null}Oa.prototype.log=function(a,b,c){if(a.value&gt;=$a(this).value)for(r(b)&amp;&amp;(b=b()),a=new Ma(a,String(b),this.s),c&amp;&amp;(a.a=c),c="log:"+a.b,l.console&amp;&amp;(l.console.timeStamp?l.console.timeStamp(c):l.console.markTimeline&amp;&amp;l.console.markTimeline(c)),l.msWriteProfilerMark&amp;&amp;l.msWriteProfilerMark(c),c=this;c;){b=c;var d=a;if(b.a)for(var e=0,f=void 0;f=b.a[e];e++)f(d);c=c.f}};var ab={},bb=null;
function cb(){bb||(bb=new Oa(""),ab[""]=bb,bb.b=Ua)}function db(){cb();return bb}function eb(a){cb();var b;if(!(b=ab[a])){b=new Oa(a);var c=a.lastIndexOf("."),d=a.substr(c+1),c=eb(a.substr(0,c));c.o||(c.o={});c.o[d]=b;b.f=c;ab[a]=b}return b};function fb(a,b){a&amp;&amp;a.log(Va,b,void 0)};function C(a,b){this.code=a;this.a=D[a]||gb;this.message=b||"";var c=this.a.replace(/((?:^|\s+)[a-z])/g,function(a){return a.toUpperCase().replace(/^[\s\xa0]+/g,"")}),d=c.length-5;if(0&gt;d||c.indexOf("Error",d)!=d)c+="Error";this.name=c;c=Error(this.message);c.name=this.name;this.stack=c.stack||""}y(C,Error);var gb="unknown error",D={15:"element not selectable",11:"element not visible"};D[31]=gb;D[30]=gb;D[24]="invalid cookie domain";D[29]="invalid element coordinates";D[12]="invalid element state";
D[32]="invalid selector";D[51]="invalid selector";D[52]="invalid selector";D[17]="javascript error";D[405]="unsupported operation";D[34]="move target out of bounds";D[27]="no such alert";D[7]="no such element";D[8]="no such frame";D[23]="no such window";D[28]="script timeout";D[33]="session not created";D[10]="stale element reference";D[21]="timeout";D[25]="unable to set cookie";D[26]="unexpected alert open";D[13]=gb;D[9]="unknown command";C.prototype.toString=function(){return this.name+": "+this.message};function hb(a){return t(a)&amp;&amp;q(a.status)?a:{status:0,value:a}}function ib(a){return t(a)&amp;&amp;q(a.status)?a:{status:a&amp;&amp;q(a.code)?a.code:13,value:{message:(a&amp;&amp;a.message||a)+""}}}function jb(a){var b=a.status;if(0==b)return a;b=b||13;a=a.value;if(!a||!t(a))throw new C(b,a+"");throw new C(b,a.message+"");};var kb;if(Fa("iPhone")&amp;&amp;!Fa("iPod")&amp;&amp;!Fa("iPad")||Fa("iPad")||Fa("iPod"))kb="";else{var lb=/Version\/([0-9.]+)/.exec(Ca);kb=lb?lb[1]:""};qa(kb,6);function mb(){}
function nb(a,b,c){if(null==b)c.push("null");else{if("object"==typeof b){if(da(b)){var d=b;b=d.length;c.push("[");for(var e="",f=0;f&lt;b;f++)c.push(e),nb(a,d[f],c),e=",";c.push("]");return}if(b instanceof String||b instanceof Number||b instanceof Boolean)b=b.valueOf();else{c.push("{");e="";for(d in b)Object.prototype.hasOwnProperty.call(b,d)&amp;&amp;(f=b[d],"function"!=typeof f&amp;&amp;(c.push(e),ob(d,c),c.push(":"),nb(a,f,c),e=","));c.push("}");return}}switch(typeof b){case "string":ob(b,c);break;case "number":c.push(isFinite(b)&amp;&amp;
!isNaN(b)?b:"null");break;case "boolean":c.push(b);break;case "function":c.push("null");break;default:throw Error("Unknown type: "+typeof b);}}}var pb={'"':'\\"',"\\":"\\\\","/":"\\/","\b":"\\b","\f":"\\f","\n":"\\n","\r":"\\r","\t":"\\t","\x0B":"\\u000b"},qb=/\uffff/.test("\uffff")?/[\\\"\x00-\x1f\x7f-\uffff]/g:/[\\\"\x00-\x1f\x7f-\xff]/g;function ob(a,b){b.push('"',a.replace(qb,function(a){var b=pb[a];b||(b="\\u"+(a.charCodeAt(0)|65536).toString(16).substr(1),pb[a]=b);return b}),'"')};function rb(a){var b=[];nb(new mb,a,b);return b.join("")}function sb(a){a=String(a);if(/^\s*$/.test(a)?0:/^[\],:{}\s\u2028\u2029]*$/.test(a.replace(/\\["\\\/bfnrtu]/g,"@").replace(/"[^"\\\n\r\u2028\u2029\x00-\x08\x0a-\x1f]*"|true|false|null|-?\d+(?:\.\d*)?(?:[eE][+\-]?\d+)?/g,"]").replace(/(?:^|:|,)(?:[\s\u2028\u2029]*\[)+/g,"")))try{return eval("("+a+")")}catch(b){}throw Error("Invalid JSON string: "+a);};function tb(a,b,c){var d=a.constructor;if(a.window===a)try{var e=a.constructor;delete a.constructor;d=a.constructor;a.constructor=e}catch(f){}return d.prototype[b].apply(a,ya(arguments,2))};var ub=eb("safaridriver.message"),vb={};function wb(a,b){vb[a]=b}function xb(a){throw Error("Invalid message: "+rb(a));}function E(a){this.a={};this.a[yb]=2;this.a[zb]=a}var yb="origin",zb="type";function Ab(a){return new E(a[zb])}function Bb(a,b){a.a.entries=b}E.prototype.b=function(a){this.a[yb]=2;if(a===window)this.f(a);else{if(!r(a.postMessage))throw Error("Unable to send message; postMessage function not available on target window");a.postMessage(this.a,"*")}};
E.prototype.f=function(){function a(a){b=a.data}this.a[yb]=2;var b;tb(window,"addEventListener","safaridriver.message.response",a,!1);Cb(this.a);tb(window,"removeEventListener","safaridriver.message.response",a,!1);return b};function Cb(a){var b=tb(document,"createEvent","MessageEvent");b.initMessageEvent("safaridriver.message",!1,!1,a,window.location.origin,"0",window,null);tb(window,"dispatchEvent",b)}E.prototype.toJSON=function(){return this.a};E.prototype.toString=function(){return rb(this.toJSON())};function Db(a){E.call(this,"loadModule");this.a.module=a}y(Db,E);Db.prototype.b=function(){throw Error("This message may only be sent synchronously.");};vb.loadModule=function(a){var b=a.module;if(!p(b))throw xb(a);return new Db(b)};function Eb(a,b,c){this.c=c;this.f=a;this.g=b;this.b=0;this.a=null}Eb.prototype.get=function(){var a;0&lt;this.b?(this.b--,a=this.a,this.a=a.next,a.next=null):a=this.f();return a};var Gb=new Eb(function(){return new Fb},function(a){a.reset()},100);function Hb(){var a=Ib,b=null;a.a&amp;&amp;(b=a.a,a.a=a.a.next,a.a||(a.b=null),b.next=null);return b}function Fb(){this.next=this.scope=this.v=null}Fb.prototype.reset=function(){this.next=this.scope=this.v=null};function Jb(a){l.setTimeout(function(){throw a;},0)}var Kb;
function Lb(){var a=l.MessageChannel;"undefined"===typeof a&amp;&amp;"undefined"!==typeof window&amp;&amp;window.postMessage&amp;&amp;window.addEventListener&amp;&amp;!Fa("Presto")&amp;&amp;(a=function(){var a=document.createElement("IFRAME");a.style.display="none";a.src="";document.documentElement.appendChild(a);var b=a.contentWindow,a=b.document;a.open();a.write("");a.close();var c="callImmediate"+Math.random(),d="file:"==b.location.protocol?"*":b.location.protocol+"//"+b.location.host,a=u(function(a){if(("*"==d||a.origin==d)&amp;&amp;a.data==
c)this.port1.onmessage()},this);b.addEventListener("message",a,!1);this.port1={};this.port2={postMessage:function(){b.postMessage(c,d)}}});if("undefined"!==typeof a&amp;&amp;!Fa("Trident")&amp;&amp;!Fa("MSIE")){var b=new a,c={},d=c;b.port1.onmessage=function(){if(m(c.next)){c=c.next;var a=c.O;c.O=null;a()}};return function(a){d.next={O:a};d=d.next;b.port2.postMessage(0)}}return"undefined"!==typeof document&amp;&amp;"onreadystatechange"in document.createElement("SCRIPT")?function(a){var b=document.createElement("SCRIPT");
b.onreadystatechange=function(){b.onreadystatechange=null;b.parentNode.removeChild(b);b=null;a();a=null};document.documentElement.appendChild(b)}:function(a){l.setTimeout(a,0)}};function Mb(a,b){Nb||Ob();Pb||(Nb(),Pb=!0);var c=Ib,d=Gb.get();d.v=a;d.scope=b;d.next=null;c.b?c.b.next=d:c.a=d;c.b=d}var Nb;function Ob(){if(l.Promise&amp;&amp;l.Promise.resolve){var a=l.Promise.resolve(void 0);Nb=function(){a.then(Qb)}}else Nb=function(){var a=Qb;!r(l.setImmediate)||l.Window&amp;&amp;l.Window.prototype&amp;&amp;l.Window.prototype.setImmediate==l.setImmediate?(Kb||(Kb=Lb()),Kb(a)):l.setImmediate(a)}}var Pb=!1,Ib=new function(){this.b=this.a=null};
function Qb(){for(var a=null;a=Hb();){try{a.v.call(a.scope)}catch(b){Jb(b)}var c=Gb;c.g(a);c.b&lt;c.c&amp;&amp;(c.b++,a.next=c.a,c.a=a)}Pb=!1};function Rb(){this.f={}}Rb.prototype.c=function(a,b){var c=Array.prototype.slice.call(arguments,1),d=this.f[a];if(d)for(var e=0;e&lt;d.length;){var f=d[e];f.v.apply(f.scope,c);d[e]===f&amp;&amp;(d[e].ea?d.splice(e,1):e+=1)}};function Sb(a,b){var c=a.f[b];c||(c=a.f[b]=[]);return c}function Tb(a,b,c,d,e){b=Sb(a,b);for(var f=b.length,g=0;g&lt;f;++g)if(b[g].v==c)return a;b.push({v:c,scope:d,ea:!!e});return a}Rb.prototype.aa=function(a,b,c){return Tb(this,a,b,c)};function Ub(a,b,c,d){return Tb(a,b,c,d,!0)}
Rb.prototype.W=Rb.prototype.aa;if(!r(Error.captureStackTrace))try{throw Error();}catch(Vb){};/*
 Portions of this code are from the Dojo toolkit, received under the
 BSD License:
 Redistribution and use in source and binary forms, with or without
 modification, are permitted provided that the following conditions are met:

 Redistributions of source code must retain the above copyright notice,
     this list of conditions and the following disclaimer.
 Redistributions in binary form must reproduce the above copyright notice,
     this list of conditions and the following disclaimer in the documentation
     and/or other materials provided with the distribution.
 Neither the name of the Dojo Foundation nor the names of its contributors
     may be used to endorse or promote products derived from this software
     without specific prior written permission.

 THIS SOFTWARE IS PROVIDED BY THE COPYRIGHT HOLDERS AND CONTRIBUTORS "AS IS"
 AND ANY EXPRESS OR IMPLIED WARRANTIES, INCLUDING, BUT NOT LIMITED TO, THE
 IMPLIED WARRANTIES OF MERCHANTABILITY AND FITNESS FOR A PARTICULAR PURPOSE
 ARE DISCLAIMED.  IN NO EVENT SHALL THE COPYRIGHT OWNER OR CONTRIBUTORS BE
 LIABLE FOR ANY DIRECT, INDIRECT, INCIDENTAL, SPECIAL, EXEMPLARY, OR
 CONSEQUENTIAL DAMAGES (INCLUDING, BUT NOT LIMITED TO, PROCUREMENT OF
 SUBSTITUTE GOODS OR SERVICES; LOSS OF USE, DATA, OR PROFITS; OR BUSINESS
 INTERRUPTION) HOWEVER CAUSED AND ON ANY THEORY OF LIABILITY, WHETHER IN
 CONTRACT, STRICT LIABILITY, OR TORT (INCLUDING NEGLIGENCE OR OTHERWISE)
 ARISING IN ANY WAY OUT OF THE USE OF THIS SOFTWARE, EVEN IF ADVISED OF THE
 POSSIBILITY OF SUCH DAMAGE.
*/
function Wb(a){var b=da(a),c=b?a.length:Ba(a);if(!c)return Xb(a);var d=0;return new Yb(function(e,f){(b?function(a,b){for(var c=a.length,d=0;d&lt;c;++d)b.call(null,a[d],d,a)}:za)(a,function(b,k){var n=ca(b);"array"!=n&amp;&amp;"object"!=n?++d==c&amp;&amp;e(a):Zb(b).then(function(b){a[k]=b;++d==c&amp;&amp;e(a)},f)})})}function $b(a){switch(ca(a)){case "array":return Wb(a);case "object":return ac(a)?a:q(a.nodeType)&amp;&amp;t(a.ownerDocument)&amp;&amp;q(a.ownerDocument.nodeType)?Xb(a):Wb(a);default:return Xb(a)}}
function bc(a){ma.call(this,a);this.name="CancellationError"}y(bc,ma);function cc(a,b){if(a instanceof bc)return a;if(b){var c=b;a&amp;&amp;(c+=": "+a);return new bc(c)}a&amp;&amp;(c=a+"");return new bc(c)}function dc(a){a.prototype.then=a.prototype.then;try{Object.defineProperty(a.prototype,"$webdriver_Thenable",{value:!0,enumerable:!1})}catch(b){a.prototype.$webdriver_Thenable=!0}}function ec(a){if(!a)return!1;try{return!!a.$webdriver_Thenable}catch(b){return!1}}
function Yb(a,b){ga(this);this.f=b||ua()||fc;this.b=this.g=null;this.a="pending";this.l=this.h=!1;this.c=void 0;try{var c=this;a(function(a){gc(c,"fulfilled",a)},function(a){gc(c,"rejected",a)})}catch(d){gc(this,"rejected",d)}}dc(Yb);h=Yb.prototype;h.toString=function(){return"Promise::"+ga(this)+' {[[PromiseStatus]]: "'+this.a+'"}'};
function gc(a,b,c){if("pending"===a.a){if(c===a)throw new TypeError("A promise may not resolve to itself");a.g=null;a.a="blocked";if(ec(c))c.then(a.J.bind(a,"fulfilled"),a.J.bind(a,"rejected"));else{if(t(c)){try{var d=c.then}catch(e){a.a="rejected";a.c=e;hc(a);return}if("function"===typeof d){ic(a,c,d);return}}a.a=b;a.c=c;hc(a)}}}function ic(a,b,c){function d(b){f||(f=!0,a.J("rejected",b))}function e(b){f||(f=!0,a.J("fulfilled",b))}var f=!1;try{c.call(b,e,d)}catch(g){d(g)}}
h.J=function(a,b){"blocked"===this.a&amp;&amp;(this.a="pending",gc(this,a,b))};function hc(a){if(!a.l){a.l=!0;jc(a.f);var b;a.h||"rejected"!==a.a||a.c instanceof bc||(b=kc(a.f),b.S=!0);a.b&amp;&amp;a.b.length&amp;&amp;(b=lc(a.f),a.b.forEach(function(a){a.a.a||mc(b,a.a)}));Mb(u(a.ca,a,b))}}
h.ca=function(){var a=this.f;--a.l;!a.l&amp;&amp;a.a&amp;&amp;a.H();this.l=!1;if(!(this.h||"rejected"!==this.a||this.c instanceof bc)){var a=this.f,b=this.c;if(a.a){var c=a.a.a;c&amp;&amp;c.removeChild(a.a);var d=a.a;a.a=c;d.l=cc(b,"Task discarded due to a previous task failure");nc(d,d.l);d.h||d.c("error",b)}else a.N(b)}this.b&amp;&amp;(a=this.b,this.b=null,a.forEach(this.da,this))};
h.da=function(a){var b=this.c,c=a.b,d=a.c;"rejected"===this.a&amp;&amp;(c=a.h,d=a.g);a.a.h=!1;r(c)?oc(a.a.X,a.a,u(c,void 0,b),a.c,a.g):(a.a.a&amp;&amp;a.a.a.removeChild(a.a),d(b))};h.cancel=function(a){this.D()&amp;&amp;(this.g?this.g.cancel(a):gc(this,"rejected",cc(a)))};h.D=function(){return"pending"===this.a};h.then=function(a,b){return pc(this,a,b)};h.K=function(a){return pc(this,null,a)};
function pc(a,b,c){if(!r(b)&amp;&amp;!r(c))return a;a.h=!0;b=new qc(a,b,c);a.b||(a.b=[]);a.b.push(b);"pending"!==a.a&amp;&amp;"blocked"!==a.a&amp;&amp;(c=a.f,c=c.C||kc(c),mc(c,b.a),hc(a));return b.f}function rc(a){function b(a){if(a===e)throw new TypeError("May not resolve a Deferred with itself");}var c,d;this.f=new Yb(function(a,b){c=a;d=b},a);var e=this;this.c=function(a){b(a);c(a)};this.g=function(a){b(a);d(a)}}dc(rc);rc.prototype.D=function(){return this.f.D()};rc.prototype.cancel=function(a){this.f.cancel(a)};
rc.prototype.then=function(a,b){return this.f.then(a,b)};rc.prototype.K=function(a){return this.f.K(a)};function ac(a){return!!a&amp;&amp;t(a)&amp;&amp;"function"===typeof a.then}function Xb(a){return a instanceof Yb?a:new Yb(function(b){b(a)})}function sc(a){return a instanceof Yb?a:new Yb(function(b,c){c(a)})}function tc(a,b){return ec(a)?a.then(b,void 0):(new Yb(function(b,d){uc(a,b,d)})).then(b,void 0)}function uc(a,b,c){ac(a)?a.then(b,c):a&amp;&amp;t(a)&amp;&amp;r(a.ba)?a.ba(b,c):b&amp;&amp;b(a)}
function Zb(a){return ac(a)?tc(a,$b):$b(a)}function vc(){this.f={};ga(this);this.g=this.b=this.h=this.C=this.B=this.a=null;this.l=0}y(vc,Rb);h=vc.prototype;h.toString=function(){return wc(this)};h.reset=function(){this.C=this.a=null;this.c("reset");m(void 0)?delete this.f[void 0]:this.f={};xc(this);yc(this)};
function wc(a){function b(a,c){var k=a.toString();c&amp;&amp;(k="(pending) "+k);a===d&amp;&amp;(k="(active) "+k);a===e&amp;&amp;(k="(running) "+k);a instanceof zc?(a.b&amp;&amp;(k+="\n"+b(a.b,!0)),a.o&amp;&amp;a.o.forEach(function(c){a.b&amp;&amp;a.b.h()===c||(k+="\n"+b(c))})):a.h()&amp;&amp;(k+="\n"+b(a.h()));return"| "+k.replace(/\n/g,"\n| ")}var c="ControlFlow::"+ga(a),d=a.a,e=a.B;return d?c+"\n"+b(Ac(d)):c}function kc(a){xc(a);a.a||(a.a=new zc(a),Ub(a.a,"error",a.N,a),a.H());return a.a}function lc(a){return a.B||kc(a)}
h.H=function(){this.b||this.l||!this.a||this.a.b||(this.b=new Bc(this.fa,this))};function yc(a){a.b&amp;&amp;(a.b.cancel(),a.b=null)}function jc(a){a.l+=1;yc(a)}h.fa=function(){this.b=null;if(!this.l)if(!this.a)Cc(this);else if(!this.a.b){var a=Dc(this);if(a){var b=this.a,c=u(this.H,this),d=function(d){b.b=null;a.l(null);a.c(d);c()},e=function(d){b.b=null;a.l(null);a.g(d);c()};b.b=a;var f=new zc(this);a.l(f);oc(this,f,a.B,function(a){uc(a,d,e)},e,!0)}}};
function Dc(a){var b=a.a,c;b.C=!0;c=b.o&amp;&amp;b.o[0];if(!c)return b.h||b.B||(a.a===b&amp;&amp;(a.a=b.a),b.a&amp;&amp;b.a.removeChild(b),b.c("close"),a.a?a.H():Cc(a)),null;if(c instanceof zc)return a.a=c,Dc(a);b.removeChild(c);return c.D()?c:Dc(a)}
function oc(a,b,c,d,e,f){function g(a){return(!a.o||!a.o.length)&amp;&amp;!a.S}function k(a){var c=b.a;c&amp;&amp;(c.removeChild(b),Mb(function(){g(c)&amp;&amp;c!==n.a&amp;&amp;c.c("close")}),n.H());a&amp;&amp;nc(b,cc(a,"Tasks cancelled due to uncaught error"));n.a=w}var n=a,w=a.a;try{a.a===b||b.a||mc(a.a,b);f&amp;&amp;(a.a=b);try{a.B=b;a.C=b;va.push(a);var v=c()}finally{va.pop(),a.C=null,a.B=b.a}b.C=!0;if(!g(b)||f&amp;&amp;ac(v)){var z;ac(v)?(b.B=!0,c=function(){b.B=!1;z=new Bc(function(){g(b)&amp;&amp;(k(),d(v))})},v.then(c,c)):ec(v)&amp;&amp;v.K(ba);Ub(Ub(b,"close",
function(){z&amp;&amp;z.cancel();g(b)&amp;&amp;k();d(v)}),"error",function(a){z&amp;&amp;z.cancel();ec(v)&amp;&amp;v.D()&amp;&amp;v.cancel(a);e(a)})}else k(),d(v)}catch(x){k(x),e(x)}finally{a.B=null}}function Cc(a){a.h||(yc(a),a.h=new Bc(a.ga,a))}h.ga=function(){this.g&amp;&amp;(clearInterval(this.g),this.g=null);this.h=null;this.c("idle")};function xc(a){a.h&amp;&amp;(a.h.cancel(),a.h=null)}h.N=function(a){this.a=null;xc(this);yc(this);this.g&amp;&amp;(clearInterval(this.g),this.g=null);Sb(this,"uncaughtException").length?this.c("uncaughtException",a):Jb(a)};
function Bc(a,b){this.a=!1;Mb(function(){this.a||a.call(b)},this)}Bc.prototype.cancel=function(){this.a=!0};function zc(a){this.f={};ga(this);this.X=a;this.b=this.g=this.o=this.a=null;this.S=this.h=this.B=this.C=!1;this.l=null}y(zc,Rb);function Ec(a,b){b instanceof zc?nc(b,a):(b.f.b=null,b.cancel(a))}function Ac(a){for(;a.a;)a=a.a;return a}function nc(a,b){a.o&amp;&amp;a.o.forEach(function(a){Ec(b,a)})}
function mc(a,b){if(a.l)Ec(a.l,b);else if(a.o||(a.o=[]),b.a=a,a.C&amp;&amp;b instanceof zc){var c=0;a.g instanceof zc&amp;&amp;(c=a.o.indexOf(a.g),c+=a.g.h?1:-1);a.o.splice(Math.max(c,0),0,b);a.g=b}else a.g=b,a.o.push(b)}zc.prototype.removeChild=function(a){var b=this.o.indexOf(a);a.a=null;this.o.splice(b,1);this.g===a&amp;&amp;(this.g=this.o[b-1]||null);this.o.length||(this.o=null)};zc.prototype.toString=function(){return"Frame::"+ga(this)};
function qc(a,b,c){rc.call(this,a.f);this.b=b;this.h=c;this.a=new zc(a.f);this.a.h=!0;this.f.g=a}y(qc,rc);var fc=new vc,va=[];function Fc(a,b){return new Yb(function(c,d){function e(){var g=(new Db(a)).f(b);try{c(jb(g).value)}catch(k){f+=1,3==f?d(k):setTimeout(e,150)}}var f=0;e()})};function Gc(){this.g=eb("safaridriver.inject.CommandRegistry");this.f={};this.b={};this.l={};this.a={}}Gc.a=function(){return Gc.m?Gc.m:Gc.m=new Gc};Gc.prototype.c=ba;function Hc(){var a=Gc.a();a.h=window;a.c=Ic;return a}function Jc(a,b,c){fb(a.g,"Declaring module: "+b);A(c,function(a){this.f[a]=b},a);a.l[b]=c;a.a[b]=!1;return a}function Kc(a,b){var c=Gc.a(),d=[],e;for(e in b)d.push(e),c.b[e]=b[e];fb(c.g,"Defined module: "+a);c.a[a]=!0}
function Lc(a,b){function c(){var a=d[b.s];if(a)return tc(a(b,l));throw Error("Unknown command: "+b);}var d=a.b,e=a.f[b.s];if(e)return Mc(a,e).then(c);try{return c()}catch(f){return sc(f)}}function Mc(a,b){return a.a[b]?Xb():Fc(b,a.h).then(u(function(a){this.c(a);this.a[b]=!0},a))};function Nc(a){this.s=a;this.a={}};var Oc,Ic=u(function(a){eval("("+a+")").call(l)},l);var Pc=window;function Qc(a){return a?a.parentWindow||a.defaultView:window}function F(a){return 9==a.nodeType?a:a.ownerDocument||a.document};function Rc(a,b){E.call(this,"encode");this.a[Sc]=a;this.a[Tc]=b}y(Rc,E);var Sc="id",Tc="css";vb.encode=function(a){var b=a[Sc],c=a[Tc];if(!p(b)||!p(c))throw xb(a);return new Rc(b,c)};function Uc(a,b,c){Nc.call(this,b);this.id=a;c&amp;&amp;(this.a=c)}y(Uc,Nc);Uc.prototype.toJSON=function(){return{id:this.id,name:this.s,parameters:this.a}};Uc.prototype.toString=function(){return rb(this)};function Vc(a,b){E.call(this,a);this.c=b}y(Vc,E);Vc.prototype.toJSON=function(){var a=this.c.toJSON();this.a.command=a;return Vc.I.toJSON.call(this)};Vc.prototype.b=function(a){var b=this.c.toJSON();this.a.command=b;Vc.I.b.call(this,a)};var Wc=function(a){function b(b){Vc.call(this,a,b)}y(b,Vc);b.a=a;wb(a,function(a){var d=a.command;if(!t(d))throw xb(a);d=p(d.id)&amp;&amp;p(d.name)&amp;&amp;t(d.parameters)?new Uc(d.id,d.name,d.parameters):null;if(!d)throw xb(a);return new b(d)});return b}("command");
function Xc(a,b){E.call(this,"response");this.a[Yc]=a;this.a[Zc]=b}y(Xc,E);var Yc="id",Zc="response";vb.response=function(a){var b=a[Yc],c=a[Zc];if(!p(b)||!t(c))throw xb(a);return new Xc(b,c)};function $c(a){this.b={};a.W("response",u(this.f,this))}function ad(a){for(var b="",c=a;c;c=c.parentElement){for(var d=1,e=c.previousSibling;e;e=e.previousSibling)1==e.nodeType&amp;&amp;d++;e=c.tagName.toLowerCase().replace(/:/g,"\\:");1&lt;d&amp;&amp;(e+=":nth-child("+d+")");b=""==b?e+b:e+" &gt; "+b}if(a.ownerDocument.querySelector(b)!==a||-1!=b.indexOf("form"))b=pa(),a.setAttribute("safaridriver-encoding",b),b=a.tagName.toLowerCase()+'[safaridriver-encoding="'+b+'"]';return b}
$c.prototype.a=function(a){var b=ca(a);switch(b){case "boolean":case "number":case "string":return a;case "null":case "undefined":return null;case "array":return xa(a,this.a,this);case "object":if(t(a)&amp;&amp;1==a.nodeType){if(a.ownerDocument!==document){var b=new rc,c=pa(),d=ad(a);(new Rc(c,d)).b(Qc(F(a)));this.b[c]=b;return b.f}b={};b.ENCODED_ELEMENT=ad(a);return b}return ea(a)?xa(a,this.a,this):Aa(a,this.a,this);case "function":return a.toString();default:throw Error("Invalid value type: "+b+" =&gt; "+
a);}};function bd(a){var b=ca(a);switch(b){case "boolean":case "number":case "string":return a;case "null":case "undefined":return null;case "array":return xa(a,bd);case "object":b=Object.keys(a);if(1==b.length&amp;&amp;"ENCODED_ELEMENT"===b[0]){a=a.ENCODED_ELEMENT;b=Pc.document.querySelector(a);if(!b)throw new C(10,"Unable to locate encoded element: "+a);b.removeAttribute("safaridriver-encoding");return b}return Aa(a,bd);default:throw Error("Invalid value type: "+b+" =&gt; "+a);}}
$c.prototype.f=function(a){if(2!==a.a[yb]){var b=this.b[a.a[Yc]];if(b){delete this.b[a.a[Yc]];a=a.a[Zc];try{jb(a);var c=bd(a.value);b.c(c)}catch(d){b.g(d)}}}};function cd(){0!=dd&amp;&amp;ga(this);this.b=this.b;this.h=this.h}var dd=0;cd.prototype.b=!1;var ed=new B("DEBUG",Ua.value);function fd(a,b,c,d){if(p(a))if("DEBUG"===a||ed.value===a)a=ed;else if(p(a))Ya||Za(),a=Ya[a]||null||Wa;else{a:if(Ya||Za(),a in Ya)a=Ya[a];else{for(var e=0;e&lt;Xa.length;++e){var f=Xa[e];if(f.value&lt;=a){a=f;break a}}a=null}a=a||Wa}this.a=a;this.message=b;this.b=q(c)?c:la();this.type=d||""}fd.prototype.toJSON=function(){return{level:this.a.name,message:this.message,timestamp:this.b,type:this.type}};function gd(a){E.call(this,"log");this.g=a}y(gd,E);gd.prototype.c=!1;function hd(a){a.c||(Bb(a,a.g.map(function(a){return a.toJSON()})),a.c=!0)}gd.prototype.toJSON=function(){hd(this);return gd.I.toJSON.call(this)};gd.prototype.b=function(a){hd(this);gd.I.b.call(this,a)};gd.prototype.f=function(a){hd(this);gd.I.f.call(this,a)};
vb.log=function(a){var b=a.entries;if(!da(b))throw xb(a);b=b.map(function(b){if(!(p(b.type)&amp;&amp;p(b.level)&amp;&amp;p(b.message)&amp;&amp;q(b.timestamp)))throw xb(a);return new fd(b.level,b.message,b.timestamp,b.type)});return new gd(b)};function id(a){cd.call(this);this.f=a;this.c=u(this.g,this);a=db();var b=this.c;a.a||(a.a=[]);a.a.push(b)}y(id,cd);id.prototype.a=!1;
function jd(){var a=new id(window);function b(a,b){var f=console[a];if(f){var g=function(){(new gd([new fd(b,ya(arguments,0).join(" "),la(),"browser")])).b(c);return f.apply(console,arguments)};g.toString=function(){return f.toString()};console[a]=g}}if(!a.a&amp;&amp;(a.a=!0,window.console)){var c=a.f;b("debug",ed);b("error",Qa);b("group",Sa);b("info",Sa);b("log",Sa);b("warn",Ra)}}
id.prototype.g=function(a){var b=a.f;a=new fd(b.value&lt;=Wa.value?Wa:b.value===Pa.value?Pa:b.value&lt;Sa.value?ed:b.value&lt;Ra.value?Sa:b.value&lt;Qa.value?Ra:Qa,"["+a.c+"] "+a.b,a.g,"driver");(new gd([a])).b(this.f)};function kd(a,b){E.call(this,"alert");this.a.message=a;this.a.blocksUiThread=b}y(kd,E);vb.alert=function(a){var b=a.message,c=a.blocksUiThread;if(!p(b)||"boolean"!=typeof c)throw xb(a);return new kd(b,c)};function ld(a,b){E.call(this,a);this.a.isFrame=!!b}y(ld,E);function md(a){function b(b){ld.call(this,a,b)}y(b,ld);b.a=a;wb(a,function(a){return new b(!!a.isFrame)});return b}var nd=md("load");md("pendingFrame").prototype.b=function(){throw Error("This message may only be sent synchronously.");};md("unload");function od(a,b){this.f={};this.g=a;this.b=eb("safaridriver.message.MessageTarget");this.a=u(this.l,this);this.h=!!b;this.g.addEventListener("message",this.a,!0);this.g.addEventListener("safaridriver.message",this.a,!0)}y(od,Rb);function pd(a){var b=qd;a.b=p(b)?eb(b):b}od.prototype.log=function(a,b,c){var d=this.b;d&amp;&amp;d.log(b||Sa,a,c)};
od.prototype.l=function(a){try{var b,c=a.message||a.data;p(c)&amp;&amp;(c=sb(c));if(!t(c)||!p(c[yb])&amp;&amp;!q(c[yb])||!p(c[zb]))throw xb(c);var d=vb[c[zb]];d||(fb(ub,"Unknown message type; falling back to the default factory: "+rb(c)),d=Ab);var e=d(c);e.a[yb]=c[yb];b=e}catch(f){return}this.h&amp;&amp;a.stopImmediatePropagation();this.c(b.a[zb],b,a)};var qd=eb("safaridriver.inject.page");
aa("init",function(){function a(a,b){var c=window[a];window[a]=b;window.constructor.prototype[a]=b;window[a].toString=function(){return c.toString()}}function b(){A(Object.getOwnPropertyNames(window),function(a){if(!(a in l)){var b=Object.getOwnPropertyDescriptor(window,a);b&amp;&amp;Object.defineProperty(l,a,b)}})}db().b=Sa;window!=l&amp;&amp;b();jd();Jc(Jc(Hc(),"page_element",["sendKeysToElement"]),"page_script",["executeScript","executeAsyncScript"]);fb(qd,"Loaded page script for "+window.location);var c=new od(window,
!0);pd(c);c.W(Wc.a,rd);Oc=new $c(c);c=new nd(window!==window.top);fb(qd,"Sending "+c);c.b(window);a("alert",sd);a("confirm",td);a("prompt",ud);tb(window,"addEventListener","beforeunload",vd,!0)});var wd={name:"alert",v:window.alert},xd={name:"beforeunload",v:ba},yd={name:"confirm",v:window.confirm},zd={name:"prompt",v:window.prompt};function sd(a){Ad(wd,a)}function td(a){return Ad(yd,a)}function ud(a){return Ad(zd,a)}function vd(a){Ad(xd,a)}
function Ad(a,b){var c=ya(arguments,1),d=c[0]+"",e=!0,f=a.v;if(a===xd&amp;&amp;(e=!1,f=window.onbeforeunload,!f))return null;fb(qd,"Sending alert notification; type: "+a.name+", text: "+d);if("1"==(new kd(d,e)).f(window))return a!==xd?(fb(qd,"Invoking native alert"),f.apply(window,c)):null;(c=qd)&amp;&amp;c.log(Sa,"Dismissing unexpected alert",void 0);var g;switch(a.name){case xd.name:f&amp;&amp;(f=f(),window.onbeforeunload=null,null!=f&amp;&amp;(new kd(f+"",!0)).f(window));break;case yd.name:g=!1;break;case zd.name:g=null}return g}
function rd(a,b){if(2!==a.a[yb]&amp;&amp;b.source===window){var c=a.c;Lc(Gc.a(),c).then(function(a){a=Oc.a(a);return Zb(a)}).then(hb,ib).then(function(a){a=new Xc(c.id,a);fb(qd,"Sending "+c.s+" response: "+a);a.b(window)})}};;this.init();}).call({});</script></svg>